<?xml version="1.0" standalone="no"?>
<!DOCTYPE svg PUBLIC "-//W3C//DTD SVG 1.1//EN" "http://www.w3.org/Graphics/SVG/1.1/DTD/svg11.dtd" >
<svg xmlns="http://www.w3.org/2000/svg">
<metadata>Generated by IcoMoon</metadata>
<defs>
<font id="wpzoom-socicon" horiz-adv-x="1024">
<font-face units-per-em="1024" ascent="960" descent="-64" />
<missing-glyph horiz-adv-x="1024" />
<glyph unicode="&#x20;" horiz-adv-x="512" d="" />
<glyph unicode="&#xe000;" glyph-name="modelmayhem" d="M1023.999 384.868c-2.004 42.082-4.008 82.16-16.032 122.238-10.020 38.074-28.054 74.144-50.098 108.212-20.040 30.058-46.090 60.118-80.156 78.152-32.062 16.032-66.13 20.040-102.2 16.032-84.164-10.020-148.29-68.133-202.395-132.258-28.054-32.062-54.106-68.133-80.156-104.204-6.012-12.024-14.028-22.044-20.040-34.066-6.012-8.016-10.020-20.040-18.036-26.050-14.028-14.028-22.044 34.066-24.046 42.082-24.046 88.172-46.090 180.352-86.168 264.516-16.032 34.066-34.066 68.133-60.118 94.184-28.054 28.054-62.122 30.058-102.2 30.058-18.036-4.008-34.066-4.008-50.098-20.040-16.032-14.028-32.062-28.054-46.090-42.082s-26.050-32.062-44.086-42.082c-14.028-8.016-32.062-6.012-38.074-22.044-10.020-18.036 2.004-38.074 2.004-58.114 0-22.044 4.008-68.133 4.008-68.133s0-48.094 0-72.14c0-12.024 0-24.046 0-36.070 0-10.020 0-30.058 0-30.058v-286.56c0 0-4.008-42.082 6.012-56.11 8.016-14.028 26.050-12.024 40.078-12.024 28.054-2.004 64.126-4.008 68.133 30.058 4.008 22.044 2.004 44.086 2.004 66.13 0 24.046 0 50.098 0 74.144 0 96.188-16.032 194.38 2.004 290.567 4.008 28.054 20.040 92.18 60.118 82.16 36.070-8.016 60.118-56.11 72.14-86.168 34.066-88.172 52.102-182.356 72.14-274.536 4.008-24.046 8.016-48.094 16.032-70.136 4.008-16.032 8.016-34.066 24.046-40.078 30.058-18.036 74.144 2.004 98.192 22.044 34.066 26.050 56.11 60.118 74.144 98.192 22.044 42.082 42.082 84.164 62.122 128.25 18.036 36.070 30.058 76.148 64.126 102.2 28.054 20.040 68.133 34.066 102.2 30.058 92.18-6.012 114.223-130.254 116.227-202.395 2.004-48.094-4.008-96.188-6.012-144.282-2.004-24.046-2.004-48.094-2.004-72.14 0-10.020-2.004-24.046 4.008-34.066 12.024-20.040 52.102-12.024 70.136-10.020 26.050 2.004 36.070 14.028 46.090 40.078 14.028 42.082 20.040 84.164 22.044 130.254 2.004 42.082 4.008 84.164 0 126.246z" />
<glyph unicode="&#xe001;" glyph-name="mixcloud" d="M937.831 162.434c-6.012 0-12.024 2.004-18.036 6.012-16.032 10.020-20.040 32.062-10.020 48.094 32.062 46.090 48.094 102.2 48.094 158.309 0 58.114-16.032 112.219-48.094 158.309-10.020 16.032-6.012 38.074 10.020 48.094 14.028 10.020 36.070 6.012 46.090-10.020 40.078-58.114 60.118-126.246 60.118-196.384s-20.040-138.27-60.118-196.384c-6.012-10.020-16.032-16.032-28.054-16.032zM839.639 218.544c-6.012 0-12.024 2.004-18.036 6.012-16.032 10.020-20.040 32.062-10.020 46.090 22.044 32.062 32.062 68.133 32.062 104.204 0 38.074-10.020 72.14-32.062 104.204-10.020 16.032-6.012 36.070 10.020 46.090 16.032 12.024 36.070 8.016 46.090-8.016 30.058-42.082 44.086-92.18 44.086-142.278s-14.028-100.196-44.086-142.278c-6.012-10.020-16.032-14.028-28.054-14.028zM681.33 523.138c-14.028 136.266-130.254 244.478-270.528 244.478-116.227 0-218.426-74.144-256.5-184.36-86.168-12.024-154.302-88.172-154.302-178.348 0-100.196 82.16-182.356 182.356-182.356h464.908c84.164 0 152.298 68.133 152.298 152.298 0 72.14-50.098 134.262-118.23 148.29zM647.263 290.684h-464.908c-62.122 0-114.223 52.102-114.223 114.223s52.102 112.219 114.223 112.219c30.058 0 58.114-10.020 80.156-32.062 14.028-14.028 34.066-14.028 48.094 0 14.028 12.024 14.028 34.066 0 48.094-24.046 24.046-52.102 40.078-84.164 48.094 32.062 70.136 104.204 118.23 184.36 118.23 112.219 0 202.395-90.176 202.395-202.395 0-22.044-2.004-44.086-10.020-64.126-6.012-18.036 4.008-36.070 22.044-42.082 4.008-2.004 8.016-2.004 10.020-2.004 16.032 0 28.054 8.016 34.066 24.046 4.008 12.024 8.016 26.050 10.020 40.078 30.058-12.024 52.102-42.082 52.102-78.152 0-46.090-36.070-84.164-84.164-84.164z" />
<glyph unicode="&#xe002;" glyph-name="drupal" d="M735.435 787.655c0 0 0 0-2.004 0-44.086 28.054-88.172 42.082-132.258 68.133-6.012 2.004-10.020 6.012-16.032 10.020-30.058 20.040-72.14 70.136-108.212 112.219 0 0 0 0 0 0s0 0 0 0c-2.004-22.044-6.012-38.074-10.020-52.102-10.020-30.058-22.044-48.094-38.074-60.118 0-2.004-2.004-2.004-4.008-4.008-50.098-40.078-82.16-52.102-126.246-74.144-2.004-2.004-8.016-6.012-14.028-10.020-26.050-16.032-72.14-48.094-116.227-98.192-54.106-64.126-104.204-156.305-104.204-284.556 0-82.16 22.044-156.305 60.118-220.43 40.078-68.133 98.192-124.242 168.328-162.317 0-2.004 0-2.004 0-2.004 2.004 0 4.008 0 4.008-2.004 2.004 0 2.004 0 4.008-2.004 0 0 2.004 0 4.008-2.004 0 0 2.004 0 4.008-2.004 0 0 0 0 2.004 0 0-2.004 2.004-2.004 4.008-4.008 0 0 0 0 0 0 62.122-30.058 132.258-46.090 202.395-46.090 238.466 0 444.868 172.336 444.868 434.849s-194.38 380.743-226.442 400.782zM741.447 44.204c-4.008-4.008-50.098-36.070-102.2-40.078-54.106-6.012-126.246-8.016-170.332 30.058-6.012 8.016-4.008 18.036 0 22.044 6.012 4.008 10.020 6.012 16.032 6.012s4.008 0 8.016-2.004c18.036-16.032 48.094-28.054 112.219-28.054 62.122 0 108.212 18.036 126.246 32.062 10.020 8.016 14.028 2.004 14.028-2.004 2.004-4.008 4.008-10.020-4.008-18.036zM569.111 134.38c10.020 10.020 28.054 26.050 46.090 34.066 16.032 6.012 26.050 4.008 40.078 4.008 16.032 0 34.066 0 46.090-8.016s18.036-26.050 22.044-36.070c4.008-10.020 0-16.032-8.016-20.040-6.012-4.008-8.016-2.004-14.028 12.024-8.016 12.024-14.028 26.050-48.094 26.050s-46.090-12.024-62.122-26.050c-16.032-14.028-22.044-20.040-28.054-12.024s-4.008 16.032 6.012 26.050zM831.623 126.364c-36.070 4.008-108.212 114.223-152.298 116.227-58.114 2.004-182.356-120.234-280.548-120.234-58.114 0-76.148 10.020-96.188 22.044-30.058 22.044-44.086 52.102-44.086 96.188 2.004 76.148 74.144 148.29 164.32 150.294 116.227 0 196.384-114.223 254.497-114.223 48.094 2.004 144.282 98.192 190.372 98.192 50.098 0 62.122-52.102 62.122-82.16s-8.016-86.168-32.062-120.234c-24.046-34.066-40.078-48.094-66.13-46.090z" />
<glyph unicode="&#xe003;" glyph-name="swarm" d="M382.747 338.778c-42.082-64.126-72.14-128.25-94.184-176.344 0-2.004-16.032-40.078-20.040-52.102-6.012-14.028 2.004-30.058 16.032-36.070 12.024-4.008 50.098-18.036 52.102-20.040 50.098-16.032 116.227-36.070 190.372-48.094-42.082 42.082-78.152 94.184-104.204 150.294s-38.074 118.23-40.078 182.356zM529.033 603.295c0 0 0 0 0 0-2.004 4.008-6.012 14.028-8.016 16.032-144.282 296.579-464.908 284.556-515.005 152.298-40.078-100.196 130.254-342.669 523.021-168.328zM593.158 631.35c0 0 0 0 0 0 222.434 98.192 190.372 268.524 134.262 290.567-78.152 30.058-218.426-84.164-138.27-282.552 2.004-2.004 4.008-6.012 4.008-8.016zM999.953 414.927c-32.062 74.144-94.184 128.25-166.324 154.302-6.012 2.004-14.028 4.008-22.044 4.008-36.070 0-72.14-30.058-76.148-70.136-4.008-64.126 8.016-128.25 36.070-192.376 28.054-62.122 66.13-114.223 118.23-154.302 12.024-10.020 28.054-14.028 44.086-14.028 30.058 0 58.114 16.032 70.136 42.082 30.058 72.14 30.058 154.302-4.008 230.45zM687.342 272.65c-36.070 80.156-50.098 160.313-44.086 238.466 2.004 22.044 10.020 44.086 20.040 64.126-2.004-2.004-6.012-2.004-6.012-2.004-32.062-8.016-64.126-22.044-92.18-40.078-40.078-28.054-76.148-68.133-92.18-114.223-4.008-12.024-8.016-26.050-8.016-40.078-6.012-62.122 4.008-128.25 32.062-190.372 28.054-60.118 66.13-110.216 114.223-148.29 30.058-22.044 84.164-38.074 126.246-38.074 40.078 0 80.156 12.024 116.227 30.058 12.024 6.012 36.070 22.044 38.074 24.046-22.044 4.008-42.082 14.028-58.114 28.054-62.122 46.090-112.219 110.216-146.286 188.368z" />
<glyph unicode="&#xe004;" glyph-name="istock" d="M60.118 657.4h184.36v-687.342h-184.36zM422.826 234.575c56.11-64.126 142.278-108.212 234.458-108.212 86.168 0 142.278 52.102 142.278 124.242 0 128.25-184.36 142.278-316.618 222.434-80.156 44.086-140.274 112.219-140.274 226.442 0 176.344 162.317 278.544 328.642 278.544 102.2 0 192.376-22.044 286.56-94.184l-98.192-144.282c-42.082 38.074-106.208 64.126-170.332 64.126-70.136 0-154.302-30.058-154.302-108.212 0-158.309 456.892-110.216 456.892-444.868 0-178.348-158.309-298.583-334.653-298.583-132.258 0-256.5 56.11-358.7 146.286zM34.066 857.791c0 68.133 52.102 120.234 120.234 120.234s120.234-52.102 120.234-120.234c0-68.133-52.102-120.234-120.234-120.234s-120.234 52.102-120.234 120.234z" />
<glyph unicode="&#xe005;" glyph-name="yammer" d="M498.974 861.799c-26.050 8.016-52.102-4.008-62.122-30.058 0 0 0-4.008-2.004-4.008 0-2.004 0-4.008 0-4.008v0c-16.032-40.078-158.309-420.822-158.309-420.822h-4.008l-168.328 430.841c0 0 0 0 0 0l-2.004 6.012c-12.024 26.050-40.078 38.074-66.13 28.054s-40.078-40.078-32.062-66.13c20.040-52.102 216.422-527.029 216.422-527.029l-14.028-28.054c-20.040-58.114-44.086-96.188-110.216-96.188-6.012 0-26.050 0-28.054 0-22.044 2.004-40.078-12.024-46.090-32.062-6.012-24.046 8.016-48.094 32.062-56.11 16.032-2.004 34.066-4.008 50.098-4.008 118.23 0 158.309 68.133 196.384 168.328 0 0 216.422 539.052 226.442 561.095 0 4.008 2.004 8.016 4.008 10.020v0c0 0 0 2.004 0 2.004 8.016 26.050-6.012 54.106-32.062 62.122zM889.737 234.575c-84.164 46.090-228.446 114.223-280.548 114.223-8.016 0-12.024-2.004-18.036-6.012-4.008-2.004-6.012-6.012-6.012-12.024 2.004-40.078 224.438-188.368 242.474-198.388l8.016-4.008c6.012-2.004 12.024-4.008 18.036-4.008 20.040 0 38.074 12.024 50.098 28.054 16.032 26.050 10.020 60.118-14.028 82.16zM591.154 587.264c6.012-4.008 10.020-6.012 18.036-6.012 52.102 0 196.384 68.133 280.548 116.227 24.046 20.040 30.058 54.106 14.028 80.156-12.024 16.032-30.058 28.054-50.098 28.054-6.012 0-12.024-2.004-20.040-4.008l-6.012-4.008c-18.036-10.020-240.47-158.309-242.474-198.388 0-6.012 2.004-10.020 6.012-12.024zM977.909 527.146h-6.012c-22.044 0-286.56-24.046-308.602-58.114-2.004-4.008-4.008-12.024 0-16.032 22.044-46.090 308.602-50.098 314.614-46.090 30.058 4.008 52.102 32.062 50.098 64.126-2.004 26.050-22.044 50.098-50.098 56.11z" />
<glyph unicode="&#xe006;" glyph-name="ello" d="M513.001 978.027c-282.552 0-513.001-230.45-513.001-513.001s230.45-513.001 513.001-513.001c282.552 0 513.001 230.45 513.001 513.001s-230.45 513.001-513.001 513.001zM811.585 388.876c-36.070-136.266-158.309-232.454-298.583-232.454s-262.512 96.188-298.583 232.454c-4.008 14.028 6.012 30.058 22.044 34.066s32.062-4.008 36.070-20.040c28.054-110.216 126.246-186.364 240.47-186.364s212.414 76.148 240.47 186.364c4.008 16.032 20.040 24.046 36.070 20.040s26.050-20.040 22.044-34.066z" />
<glyph unicode="&#xe007;" glyph-name="stackoverflow" d="M697.361 34.184h-510.998l2.004 344.673h-76.148l-2.004-426.833h669.307v430.841h-82.16zM236.462 178.466h398.778v-82.16h-398.778zM246.481 330.763l402.786-38.074-8.016-88.172-402.786 38.074zM282.552 505.103l390.763-110.216-24.046-84.164-388.759 110.216zM378.74 701.487l344.673-208.407-44.086-76.148-346.677 210.41zM739.443 509.111l-236.462 328.642 72.14 50.098 234.458-328.642zM761.487 963.999l86.168 14.028 68.133-398.778-88.172-14.028z" />
<glyph unicode="&#xe008;" glyph-name="persona" d="M689.346 857.791h-651.271c-22.044 0-38.074-16.032-38.074-36.070v-713.393c0-20.040 16.032-36.070 38.074-36.070h651.271l336.657 392.767zM414.81 228.564c-158.309 0-210.41 6.012-210.41 6.012s8.016 126.246 66.13 148.29c56.11 22.044 70.136 20.040 90.176 32.062 0 0 2.004 0 2.004 0v34.066c-20.040 16.032-34.066 42.082-44.086 70.136-10.020 12.024-16.032 24.046-16.032 38.074 0 10.020 4.008 20.040 8.016 28.054 4.008 70.136 48.094 116.227 104.204 116.227 54.106 0 100.196-46.090 102.2-116.227 6.012-8.016 8.016-18.036 8.016-28.054 0-14.028-6.012-26.050-16.032-38.074-8.016-28.054-24.046-54.106-42.082-70.136v-34.066c0 0 0 0 0 0 20.040-12.024 34.066-10.020 92.18-32.062s66.13-148.29 66.13-148.29c0 0-54.106-6.012-210.41-6.012z" />
<glyph unicode="&#xe009;" glyph-name="triplej" d="M366.716 891.858c26.050-60.118 52.102-120.234 80.156-180.352 2.004-6.012 8.016-30.058 18.036-26.050 20.040 8.016 16.032 6.012 10.020 26.050-10.020 30.058-22.044 58.114-30.058 86.168-16.032 44.086-36.070 88.172-50.098 132.258-4.008 12.024-18.036 58.114-38.074 46.090-32.062-18.036 0-60.118 10.020-84.164 4.008-8.016-4.008 10.020 0 0zM717.401 587.264c-22.044 0-32.062-34.066-14.028-46.090 6.012-4.008 12.024-6.012 14.028-6.012 10.020 0 26.050 16.032 26.050 28.054 0 6.012 10.020 20.040 36.070 48.094 20.040 20.040 60.118 62.122 90.176 92.18 28.054 30.058 70.136 74.144 92.18 98.192 52.102 54.106 52.102 54.106 46.090 66.13-2.004 6.012-10.020 12.024-16.032 12.024-2.004 2.004-2.004 2.004-4.008 2.004-8.016-2.004-18.036-12.024-54.106-54.106-10.020-12.024-26.050-30.058-34.066-40.078-8.016-8.016-26.050-28.054-38.074-44.086-14.028-14.028-34.066-38.074-44.086-50.098-36.070-40.078-56.11-64.126-74.144-86.168-12.024-14.028-20.040-20.040-26.050-20.040zM713.393 390.88c56.11 24.046 124.242 72.14 146.286 104.204 6.012 6.012 12.024 14.028 14.028 18.036 18.036 20.040 30.058 68.133 22.044 96.188-4.008 18.036-24.046 50.098-32.062 50.098-6.012 0-56.11-56.11-58.114-64.126-4.008-16.032 4.008-20.040 34.066-20.040s28.054-4.008-6.012-16.032c-44.086-16.032-50.098-30.058-34.066-64.126 4.008-10.020 8.016-18.036 6.012-18.036 0-2.004-10.020 0-20.040 4.008-24.046 6.012-34.066 8.016-48.094 2.004-12.024-6.012-30.058-40.078-30.058-54.106 0-6.012-2.004-10.020-4.008-12.024-6.012-2.004-12.024 14.028-12.024 28.054 0 4.008-6.012 16.032-14.028 24.046-14.028 16.032-14.028 16.032-40.078 16.032-14.028 0-32.062-2.004-42.082-4.008l-16.032-2.004 24.046 24.046c20.040 20.040 24.046 24.046 24.046 40.078 0 20.040-10.020 34.066-32.062 52.102l-12.024 12.024 16.032-4.008c56.11-10.020 82.16 6.012 90.176 58.114 0 10.020 4.008 18.036 4.008 18.036 2.004 0 8.016-10.020 12.024-20.040 12.024-26.050 20.040-32.062 36.070-20.040 12.024 8.016 46.090 46.090 48.094 54.106 4.008 10.020-46.090 16.032-102.2 16.032-44.086 0-92.18-4.008-120.234-10.020-60.118-16.032-74.144-20.040-72.14-28.054 2.004-4.008 6.012-14.028 10.020-22.044 8.016-26.050 14.028-38.074 18.036-38.074 6.012 0 22.044-22.044 22.044-28.054 0-4.008-4.008-12.024-10.020-18.036-12.024-12.024-28.054-14.028-42.082-2.004-6.012 8.016-8.016 12.024-6.012 24.046 2.004 16.032-2.004 26.050-22.044 70.136l-4.008 8.016-30.058-14.028c-88.172-44.086-144.282-98.192-162.317-160.313-4.008-8.016-4.008-18.036-4.008-18.036 2.004 0 34.066-2.004 72.14-4.008 62.122-2.004 74.144-2.004 80.156 2.004 12.024 10.020 20.040 12.024 34.066 6.012s16.032-14.028 14.028-30.058c-2.004-18.036-32.062-28.054-46.090-14.028-6.012 6.012-14.028 6.012-76.148 4.008-36.070 0-68.133-2.004-70.136-4.008-2.004-4.008 12.024-26.050 28.054-40.078 30.058-26.050 76.148-44.086 138.27-50.098 76.148-8.016 188.368 12.024 274.536 48.094zM951.859 308.72c-2.004 22.044-6.012 58.114-10.020 78.152-2.004 20.040-6.012 52.102-8.016 68.133-2.004 22.044-4.008 32.062-6.012 32.062s-4.008-4.008-6.012-14.028c-2.004-20.040-26.050-140.274-30.058-146.286 0-2.004-4.008-18.036-6.012-34.066-4.008-14.028-8.016-36.070-10.020-48.094-2.004-10.020-8.016-38.074-12.024-60.118-10.020-48.094-16.032-68.133-20.040-68.133-2.004 0-48.094 42.082-102.2 94.184l-96.188 96.188-8.016-14.028c-4.008-10.020-8.016-24.046-10.020-34.066 0-10.020-4.008-20.040-6.012-24.046-2.004-2.004-8.016-26.050-16.032-52.102-6.012-24.046-14.028-54.106-18.036-64.126-2.004-12.024-8.016-32.062-12.024-48.094-8.016-32.062-14.028-34.066-34.066-12.024-18.036 20.040-68.133 78.152-74.144 84.164-2.004 2.004-14.028 14.028-26.050 28.054s-26.050 30.058-30.058 34.066c-4.008 6.012-20.040 22.044-34.066 38.074s-28.054 32.062-30.058 34.066c-2.004 2.004-14.028 14.028-24.046 26.050-20.040 22.044-22.044 20.040-10.020-10.020 4.008-10.020 12.024-26.050 14.028-34.066 4.008-8.016 8.016-18.036 12.024-26.050 6.012-10.020 12.024-26.050 28.054-64.126 4.008-8.016 10.020-20.040 12.024-26.050 4.008-12.024 16.032-36.070 26.050-60.118 20.040-48.094 26.050-58.114 44.086-76.148 24.046-22.044 60.118-40.078 98.192-48.094 60.118-12.024 142.278-6.012 208.407 16.032 66.13 20.040 108.212 46.090 150.294 88.172 34.066 34.066 34.066 34.066 46.090 58.114 14.028 26.050 16.032 50.098 10.020 102.2-2.004 26.050-8.016 64.126-10.020 86.168zM230.45 469.033c-8.016 2.004-40.078 2.004-76.148 2.004-58.114 0-132.258-2.004-134.262-4.008-6.012-8.016-6.012-26.050 0-32.062 4.008-4.008 26.050-4.008 114.223-2.004 62.122 2.004 112.219 4.008 112.219 4.008 2.004 0 2.004 8.016 0 16.032-2.004 10.020-4.008 14.028-16.032 16.032z" />
<glyph unicode="&#xe00a;" glyph-name="houzz" d="M513.001-45.972l286.56 174.34v336.657l-286.56-172.336zM513.001 635.357v344.673l-296.579-174.34v-348.681l294.575 172.336 288.564-164.32v340.665zM508.994 290.684l-292.571 166.324v-338.661z" />
<glyph unicode="&#xe00b;" glyph-name="rss" d="M274.536 90.294c0-76.148-60.118-136.266-136.266-136.266s-136.266 60.118-136.266 136.266c0 74.144 60.118 136.266 136.266 136.266s136.266-62.122 136.266-136.266zM2.004 432.962c128.25 0 248.485-50.098 338.661-140.274s140.274-212.414 140.274-340.665h196.384c0 372.728-302.59 677.322-675.318 677.322zM2.004 781.643c454.888 0 825.611-372.728 825.611-829.619h196.384c0 565.103-458.896 1026.003-1021.995 1026.003z" />
<glyph unicode="&#xe00c;" glyph-name="paypal" d="M637.244 978.027h-370.724c-24.046 0-46.090-18.036-50.098-44.086l-148.29-945.847c-4.008-20.040 10.020-36.070 30.058-36.070h176.344c24.046 0 46.090 18.036 50.098 44.086l40.078 254.497c4.008 26.050 26.050 44.086 50.098 44.086h118.23c242.474 0 382.747 116.227 420.822 350.684 16.032 102.2 0 182.356-48.094 238.466-52.102 62.122-146.286 94.184-268.524 94.184zM679.326 631.35c-20.040-132.258-122.238-132.258-220.43-132.258h-54.106l38.074 248.485c2.004 14.028 16.032 26.050 30.058 26.050h26.050c66.13 0 130.254 0 162.317-38.074 20.040-24.046 26.050-56.11 18.036-104.204z" />
<glyph unicode="&#xe00d;" glyph-name="odnoklassniki" d="M513.001 459.013c144.282 0 260.508 116.227 260.508 258.504 0 144.282-116.227 260.508-260.508 260.508s-260.508-116.227-260.508-260.508c0-142.278 116.227-258.504 260.508-258.504zM513.001 845.768c70.136 0 128.25-56.11 128.25-128.25 0-70.136-58.114-126.246-128.25-126.246s-128.25 56.11-128.25 126.246c0 72.14 58.114 128.25 128.25 128.25zM811.585 426.95c-14.028 30.058-54.106 54.106-108.212 12.024-74.144-58.114-190.372-58.114-190.372-58.114s-116.227 0-190.372 58.114c-54.106 42.082-94.184 18.036-108.212-12.024-26.050-52.102 2.004-76.148 68.133-118.23 56.11-36.070 132.258-48.094 180.352-54.106l-40.078-42.082c-58.114-56.11-114.223-112.219-154.302-152.298-22.044-22.044-22.044-60.118 0-84.164l8.016-6.012c24.046-24.046 60.118-24.046 84.164 0l152.298 152.298c58.114-58.114 114.223-114.223 154.302-152.298 22.044-24.046 60.118-24.046 84.164 0l6.012 6.012c24.046 24.046 24.046 62.122 0 84.164l-194.38 194.38c50.098 6.012 126.246 18.036 180.352 54.106 66.13 42.082 94.184 66.13 68.133 118.23z" />
<glyph unicode="&#xe00e;" glyph-name="airbnb" d="M977.909 250.606c-6.012 12.024-10.020 24.046-16.032 36.070-8.016 18.036-16.032 36.070-24.046 52.102v2.004c-72.14 154.302-148.29 310.606-226.442 464.908l-4.008 6.012c-8.016 16.032-16.032 32.062-24.046 48.094-10.020 18.036-22.044 38.074-38.074 56.11-34.066 40.078-80.156 62.122-130.254 62.122-52.102 0-98.192-22.044-132.258-62.122-16.032-18.036-26.050-38.074-36.070-56.11-10.020-16.032-18.036-32.062-26.050-48.094l-4.008-6.012c-78.152-154.302-154.302-310.606-226.442-464.908v-2.004c-8.016-16.032-16.032-34.066-24.046-52.102-4.008-12.024-10.020-24.046-14.028-36.070-14.028-38.074-18.036-74.144-14.028-112.219 12.024-76.148 62.122-140.274 134.262-170.332 26.050-10.020 56.11-16.032 84.164-16.032 10.020 0 18.036 0 28.054 2.004 34.066 4.008 68.133 16.032 102.2 34.066 42.082 24.046 82.16 58.114 128.25 106.208 44.086-48.094 86.168-82.16 126.246-106.208 34.066-18.036 70.136-30.058 104.204-34.066 8.016-2.004 18.036-2.004 26.050-2.004 30.058 0 58.114 6.012 84.164 16.032 72.14 30.058 122.238 94.184 134.262 170.332 4.008 38.074 0 74.144-12.024 112.219zM515.005 196.5c-56.11 70.136-92.18 136.266-104.204 190.372-6.012 24.046-6.012 44.086-4.008 64.126 2.004 16.032 8.016 30.058 16.032 42.082 20.040 28.054 54.106 44.086 92.18 44.086 36.070 0 70.136-16.032 90.176-44.086 8.016-12.024 14.028-26.050 16.032-42.082 4.008-20.040 2.004-40.078-4.008-64.126-12.024-54.106-48.094-120.234-102.2-190.372zM923.803 148.406c-6.012-54.106-42.082-98.192-92.18-120.234-24.046-10.020-52.102-12.024-80.156-10.020-26.050 4.008-50.098 12.024-78.152 28.054-36.070 20.040-74.144 52.102-116.227 98.192 68.133 84.164 110.216 160.313 124.242 228.446 8.016 32.062 10.020 60.118 4.008 88.172-4.008 26.050-12.024 48.094-26.050 70.136-32.062 46.090-86.168 72.14-144.282 72.14-60.118 0-114.223-26.050-146.286-72.14-14.028-22.044-22.044-44.086-26.050-70.136-4.008-28.054-4.008-56.11 4.008-88.172 16.032-68.133 58.114-144.282 124.242-228.446-42.082-46.090-80.156-78.152-116.227-98.192-26.050-16.032-52.102-24.046-78.152-28.054-28.054-2.004-54.106 0-80.156 10.020-48.094 22.044-84.164 66.13-92.18 120.234-4.008 26.050-2.004 52.102 8.016 80.156 4.008 10.020 8.016 20.040 14.028 32.062 8.016 16.032 16.032 34.066 24.046 50.098v2.004c70.136 154.302 146.286 308.602 224.438 462.904l4.008 6.012c8.016 16.032 16.032 32.062 24.046 46.090 10.020 18.036 18.036 32.062 30.058 46.090 22.044 26.050 50.098 38.074 82.16 38.074s60.118-12.024 80.156-38.074c12.024-14.028 20.040-28.054 30.058-44.086 8.016-16.032 16.032-32.062 24.046-48.094l4.008-6.012c78.152-154.302 154.302-308.602 224.438-462.904v0c8.016-18.036 16.032-34.066 24.046-52.102 6.012-12.024 10.020-22.044 14.028-32.062 10.020-28.054 12.024-54.106 8.016-80.156z" />
<glyph unicode="&#xe00f;" glyph-name="periscope" d="M805.573 849.776c-78.152 82.16-180.352 128.25-286.56 128.25-230.45 0-416.814-192.376-416.814-428.837 0-152.298 114.223-320.626 164.32-386.755 74.144-98.192 184.36-210.41 252.493-210.41 82.16 0 226.442 188.368 240.47 210.41 50.098 66.13 164.32 236.462 164.32 386.755 0 112.219-42.082 220.43-118.23 300.587zM519.013-11.906c-86.168 0-380.743 334.653-380.743 561.095 0 214.418 168.328 392.767 380.743 392.767 200.392 0 368.72-178.348 368.72-392.767 0-226.442-294.575-561.095-368.72-561.095zM519.013 795.671c-20.040 0-40.078-2.004-60.118-6.012 32.062-14.028 54.106-46.090 54.106-82.16 0-50.098-40.078-88.172-90.176-88.172s-90.176 38.074-90.176 88.172c0 0 0 0 0 0-30.058-38.074-48.094-88.172-48.094-144.282 0-118.23 102.2-218.426 234.458-218.426 120.234 0 222.434 100.196 222.434 218.426 0 132.258-102.2 232.454-222.434 232.454z" />
<glyph unicode="&#xe010;" glyph-name="outlook" d="M641.252 759.6v-200.392l70.136-44.086c2.004 0 6.012 0 8.016 0l300.587 204.399c0 24.046-22.044 40.078-34.066 40.078zM641.252 485.064l64.126-44.086c8.016-6.012 20.040 0 20.040 0-12.024-6.012 294.575 196.384 294.575 196.384v-368.72c0-40.078-26.050-56.11-54.106-56.11h-324.634v272.532zM308.602 577.244c-22.044 0-38.074-10.020-52.102-30.058-12.024-20.040-18.036-48.094-18.036-82.16s6.012-60.118 18.036-80.156c14.028-20.040 30.058-30.058 52.102-30.058 20.040 0 38.074 10.020 50.098 28.054 12.024 20.040 18.036 46.090 18.036 82.16 0 34.066-6.012 62.122-18.036 82.16s-28.054 30.058-50.098 30.058zM6.012 861.799v-785.533l597.166-124.242v1026.003zM404.79 336.774c-24.046-32.062-58.114-50.098-98.192-50.098s-72.14 16.032-96.188 48.094c-26.050 32.062-38.074 74.144-38.074 126.246 0 54.106 12.024 98.192 38.074 132.258s58.114 52.102 100.196 52.102c40.078 0 72.14-16.032 96.188-50.098 24.046-32.062 36.070-74.144 36.070-126.246 0-54.106-12.024-98.192-38.074-132.258z" />
<glyph unicode="&#xe011;" glyph-name="coderwall" d="M895.749 673.432c72.14 0 128.25 58.114 128.25 128.25s-56.11 128.25-128.25 128.25c-70.136 0-126.246-58.114-126.246-128.25s56.11-128.25 126.246-128.25zM895.749 593.275c-70.136 0-126.246-58.114-126.246-128.25s56.11-128.25 126.246-128.25c72.14 0 128.25 58.114 128.25 128.25s-56.11 128.25-128.25 128.25zM895.749 256.618c-70.136 0-126.246-58.114-126.246-128.25s56.11-128.25 126.246-128.25c72.14 0 128.25 58.114 128.25 128.25s-56.11 128.25-128.25 128.25zM508.994 929.933c-70.136 0-128.25-58.114-128.25-128.25s58.114-128.25 128.25-128.25c70.136 0 128.25 58.114 128.25 128.25s-58.114 128.25-128.25 128.25zM508.994 593.275c-70.136 0-128.25-58.114-128.25-128.25s58.114-128.25 128.25-128.25c70.136 0 128.25 58.114 128.25 128.25s-58.114 128.25-128.25 128.25zM126.246 929.933c-70.136 0-128.25-58.114-128.25-128.25s58.114-128.25 128.25-128.25c70.136 0 128.25 58.114 128.25 128.25s-58.114 128.25-128.25 128.25z" />
<glyph unicode="&#xe012;" glyph-name="tripadvisor" d="M300.587 420.939c0-22.044-18.036-42.082-42.082-42.082-22.044 0-42.082 20.040-42.082 42.082 0 24.046 20.040 42.082 42.082 42.082 24.046 0 42.082-18.036 42.082-42.082zM809.581 420.939c0-22.044-20.040-42.082-42.082-42.082-24.046 0-42.082 20.040-42.082 42.082 0 24.046 18.036 42.082 42.082 42.082 22.044 0 42.082-18.036 42.082-42.082zM258.504 545.182c-32.062 0-64.126-12.024-88.172-36.070-22.044-24.046-36.070-54.106-36.070-88.172 0-32.062 14.028-64.126 36.070-88.172 24.046-22.044 56.11-36.070 88.172-36.070 70.136 0 124.242 56.11 124.242 124.242s-54.106 124.242-124.242 124.242zM258.504 334.77c-22.044 0-44.086 10.020-60.118 26.050s-26.050 38.074-26.050 60.118c0 24.046 10.020 46.090 26.050 62.122s38.074 24.046 60.118 24.046c48.094 0 86.168-38.074 86.168-86.168s-38.074-86.168-86.168-86.168zM767.499 545.182c-34.066 0-64.126-12.024-88.172-36.070s-36.070-54.106-36.070-88.172c0-32.062 12.024-64.126 36.070-88.172 24.046-22.044 54.106-36.070 88.172-36.070 68.133 0 124.242 56.11 124.242 124.242s-56.11 124.242-124.242 124.242zM767.499 334.77c-24.046 0-46.090 10.020-62.122 26.050s-24.046 38.074-24.046 60.118c0 24.046 8.016 46.090 24.046 62.122s38.074 24.046 62.122 24.046c46.090 0 86.168-38.074 86.168-86.168s-40.078-86.168-86.168-86.168zM967.889 585.26c10.020 30.058 24.046 64.126 44.086 84.164h-168.328c-4.008 0-6.012 2.004-10.020 2.004-8.016 14.028-72.14 96.188-324.634 96.188-278.544 0-326.638-98.192-326.638-98.192h-178.348c22.044-20.040 38.074-62.122 48.094-92.18-32.062-44.086-52.102-98.192-52.102-156.305 0-142.278 116.227-258.504 258.504-258.504 80.156 0 150.294 36.070 198.388 92.18l58.114-82.16 52.102 84.164c46.090-58.114 118.23-94.184 200.392-94.184 142.278 0 258.504 116.227 258.504 258.504 0 62.122-22.044 120.234-58.114 164.32zM258.504 212.532c-114.223 0-208.407 94.184-208.407 208.407 0 116.227 94.184 208.407 208.407 208.407 116.227 0 208.407-92.18 208.407-208.407 0-114.223-92.18-208.407-208.407-208.407zM262.512 665.416c0 0 66.13 76.148 244.478 76.148h18.036c176.344 0 244.478-76.148 244.478-76.148s-190.372 32.062-254.497-202.395c-62.122 234.458-252.493 202.395-252.493 202.395zM767.499 212.532c-116.227 0-208.407 94.184-208.407 208.407 0 116.227 92.18 208.407 208.407 208.407 114.223 0 208.407-92.18 208.407-208.407 0-114.223-94.184-208.407-208.407-208.407z" />
<glyph unicode="&#xe013;" glyph-name="appnet" d="M513.001 851.78l-513.001-773.51h104.204l116.227 178.348h585.142l116.227-178.348h104.204zM288.564 346.794l224.438 338.661 224.438-338.661z" />
<glyph unicode="&#xe014;" glyph-name="goodreads" d="M739.443 957.987v-102.2c-52.102 76.148-138.27 120.234-234.458 120.234-192.376 0-320.626-146.286-320.626-366.716 0-96.188 26.050-182.356 74.144-246.481 54.106-74.144 134.262-114.223 234.458-114.223s194.38 44.086 246.481 116.227v-106.208c0-156.305-72.14-228.446-232.454-228.446-134.262 0-202.395 56.11-208.407 164.32v24.046h-72.14l2.004-22.044c4.008-154.302 106.208-244.478 282.552-244.478 200.392 0 310.606 108.212 310.606 306.598v699.365h-82.16zM757.479 609.307c0-142.278-78.152-284.556-252.493-284.556-144.282 0-238.466 112.219-238.466 284.556 0 134.262 64.126 290.567 248.485 290.567 64.126 0 118.23-22.044 160.313-64.126 54.106-54.106 84.164-136.266 82.16-226.442z" />
<glyph unicode="&#xe015;" glyph-name="tripit" d="M484.947 390.88l-362.708 4.008c-6.012 0-10.020 0-14.028-4.008s-6.012-8.016-10.020-12.024-16.032-14.028-26.050-18.036c-22.044-4.008-44.086 0-60.118 14.028-14.028 14.028-16.032 36.070-6.012 54.106 16.032 30.058 62.122 40.078 90.176 18.036 8.016-8.016 14.028-16.032 16.032-28.054 0-4.008 2.004-4.008 6.012-4.008l368.72 4.008c6.012 0 4.008 0 4.008-4.008 0-6.012 0-12.024 0-20.040 0-4.008-2.004-4.008-6.012-4.008zM663.295 390.88c10.020 28.054-2.004 58.114-24.046 74.144-38.074 24.046-92.18 12.024-116.227-24.046-14.028-22.044-16.032-48.094-2.004-70.136 14.028-20.040 38.074-28.054 62.122-30.058-2.004 0-2.004 0 4.008 0 10.020 0 8.016 0 4.008 0 32.062 2.004 62.122 22.044 72.14 50.098zM985.925 453.002c-24.046 2.004-46.090-12.024-52.102-34.066-2.004-4.008-2.004-4.008-6.012-4.008l-238.466 2.004c-2.004 0-2.004-6.012-2.004-8.016 0-4.008 0-8.016-2.004-12.024 0-4.008 0-4.008 4.008-4.008l240.47 4.008c4.008-2.004 6.012-12.024 8.016-16.032 4.008-4.008 8.016-10.020 12.024-14.028 10.020-8.016 24.046-10.020 36.070-8.016 22.044 2.004 40.078 22.044 40.078 46.090s-16.032 44.086-40.078 48.094zM579.131 563.217c4.008 0 4.008-2.004 4.008-6.012l-4.008-56.11c-2.004-4.008 2.004-6.012 6.012-6.012 6.012 2.004 12.024 2.004 18.036 0 4.008 0 4.008 2.004 4.008 6.012 0 18.036-2.004 38.074-2.004 58.114 0 6.012 8.016 6.012 14.028 8.016 4.008 4.008 10.020 8.016 14.028 12.024 8.016 8.016 12.024 20.040 12.024 34.066 2.004 22.044-12.024 42.082-34.066 50.098-20.040 8.016-44.086 0-58.114-18.036-22.044-28.054-10.020-70.136 26.050-82.16zM831.623 603.295c0-2.004 2.004-2.004 2.004-2.004s-2.004 0-2.004 2.004zM667.303 467.029c2.004-4.008 6.012-8.016 8.016-10.020 2.004-4.008 6.012-2.004 8.016 0l122.238 78.152c2.004 0 4.008-2.004 8.016-4.008 12.024-6.012 28.054-6.012 40.078 4.008 28.054 22.044 12.024 66.13-22.044 68.133-24.046 0-42.082-22.044-38.074-46.090 2.004-4.008 0-6.012-2.004-6.012-44.086-24.046-86.168-50.098-128.25-76.148-4.008-4.008 2.004-6.012 4.008-8.016zM388.759 304.712c0 14.028 0-6.012 0 0zM513.001 348.798c-4.008 4.008-6.012 8.016-8.016 10.020-2.004 4.008-4.008 4.008-6.012 2.004-14.028-10.020-28.054-18.036-44.086-28.054-2.004-2.004-4.008-2.004-6.012 0-12.024 10.020-26.050 12.024-40.078 4.008-12.024-6.012-20.040-18.036-20.040-32.062-2.004-26.050 24.046-44.086 46.090-38.074 20.040 6.012 32.062 24.046 28.054 42.082 0 4.008 0 4.008 4.008 6.012 16.032 8.016 32.062 18.036 48.094 28.054 4.008 2.004 0 4.008-2.004 6.012zM398.778 519.13c2.004 0 4.008 2.004 6.012 2.004 4.008 0 6.012-2.004 8.016-4.008l86.168-68.133c4.008-2.004 4.008-2.004 6.012 2.004 4.008 4.008 8.016 10.020 12.024 14.028s-4.008 6.012-8.016 8.016l-82.16 60.118c-6.012 4.008-12.024 6.012-10.020 14.028 0 0 0 2.004 0 2.004-2.004 28.054-42.082 38.074-56.11 12.024-6.012-12.024-4.008-28.054 6.012-36.070 8.016-8.016 20.040-12.024 32.062-6.012zM691.349 344.79c-8.016-2.004-12.024 0-18.036 6.012-2.004 0-2.004 2.004-4.008 2.004-2.004 4.008-4.008 4.008-8.016 0-2.004-2.004-6.012-6.012-10.020-8.016-2.004-2.004-2.004-2.004 2.004-4.008 4.008-4.008 10.020-6.012 16.032-10.020 4.008-2.004 2.004-6.012 2.004-10.020s0-8.016 2.004-12.024c4.008-6.012 10.020-12.024 20.040-12.024 14.028-2.004 24.046 10.020 24.046 24.046 0 0 0 0 0 0v0c0 14.028-12.024 26.050-26.050 24.046z" />
<glyph unicode="&#xe016;" glyph-name="lanyrd" d="M547.068 232.572c8.016-4.008 16.032 2.004 24.046 4.008 88.172 26.050 182.356 58.114 278.544 88.172 38.074 12.024 74.144 26.050 92.18 14.028 14.028-8.016 20.040-28.054 26.050-44.086 2.004-8.016 2.004-18.036 4.008-28.054 2.004-6.012 6.012-12.024 6.012-20.040 0-2.004-2.004-6.012-2.004-6.012 4.008-20.040 10.020-28.054 12.024-48.094 0-2.004-2.004-10.020-2.004-18.036s-4.008-22.044-10.020-30.058c0 0-6.012 0-6.012-2.004 0 0 2.004-2.004 2.004-4.008-2.004 0-8.016 0-8.016-2.004-8.016-18.036-102.2-40.078-132.258-48.094l-318.622-102.2c-66.13-20.040-122.238-42.082-150.294-32.062-42.082 16.032-70.136 140.274-94.184 216.422-40.078 124.242-66.13 224.438-106.208 336.657-2.004 4.008-2.004 12.024-6.012 16.032-2.004 4.008-4.008 4.008-6.012 10.020-12.024 32.062-16.032 74.144-34.066 108.212-2.004 2.004-6.012 4.008-6.012 8.016-8.016 18.036-12.024 40.078-20.040 62.122-14.028 40.078-28.054 68.133-40.078 118.23-8.016 22.044-14.028 44.086-12.024 56.11 2.004 4.008 12.024 18.036 20.040 24.046 6.012 6.012 18.036 8.016 32.062 14.028 38.074 18.036 172.336 68.133 208.407 50.098 32.062-18.036 50.098-102.2 72.14-170.332 20.040-66.13 36.070-130.254 54.106-188.368z" />
<glyph unicode="&#xe017;" glyph-name="slideshare" d="M378.74 665.416c-66.13 0-120.234-50.098-120.234-112.219s54.106-112.219 120.234-112.219c66.13 0 120.234 50.098 120.234 112.219s-54.106 112.219-120.234 112.219zM663.295 667.42c-66.13 0-120.234-50.098-120.234-112.219 0-64.126 54.106-114.223 120.234-114.223 68.133 0 122.238 50.098 122.238 114.223 0 62.122-54.106 112.219-122.238 112.219zM979.913 489.072c-4.008-2.004-6.012-6.012-16.032-8.016v396.774c0 56.11-36.070 100.196-86.168 100.196h-719.405c-50.098 0-96.188-44.086-96.188-100.196v-396.774c0 2.004-6.012 6.012-10.020 8.016-32.062 22.044-50.098-8.016-32.062-36.070 38.074-44.086 106.208-100.196 214.418-144.282-114.223-382.747 274.536-444.868 268.524-246.481 0-4.008 0 110.216 0 192.376 12.024-2.004 20.040-4.008 28.054-6.012 0-82.16 0-190.372 0-186.364-6.012-198.388 382.747-136.266 270.528 246.481 106.208 44.086 174.34 100.196 210.41 144.282 20.040 28.054-2.004 58.114-32.062 36.070zM913.783 450.998c-134.262-74.144-254.497-62.122-318.622-60.118-48.094 4.008-64.126-18.036-66.13-48.094-10.020 8.016-22.044 18.036-34.066 28.054-2.004 2.004-2.004 4.008-4.008 6.012-12.024 10.020-26.050 16.032-54.106 14.028-62.122-2.004-190.372-14.028-314.614 58.114v384.751c0 70.136 16.032 92.18 80.156 92.18h637.244c60.118 0 74.144-28.054 74.144-92.18z" />
<glyph unicode="&#xe018;" glyph-name="buffer" d="M1007.967 198.504c-2.004 2.004-6.012 4.008-8.016 6.012-26.050 12.024-54.106 24.046-80.156 36.070-22.044 12.024-46.090 12.024-70.136 0-100.196-46.090-200.392-94.184-300.587-140.274-24.046-10.020-48.094-12.024-70.136 0-100.196 46.090-202.395 94.184-302.59 140.274-24.046 12.024-48.094 12.024-72.14 0s-50.098-24.046-74.144-34.066c-8.016-4.008-20.040-8.016-20.040-20.040 0-10.020 12.024-12.024 20.040-16.032 148.29-70.136 296.579-140.274 446.872-208.407 24.046-12.024 48.094-12.024 70.136-2.004 150.294 70.136 300.587 140.274 450.88 210.41 4.008 2.004 8.016 4.008 10.020 6.012 10.020 6.012 10.020 16.032 0 22.044zM16.032 731.545c4.008-2.004 10.020-6.012 14.028-8.016 150.294-68.133 298.583-138.27 446.872-208.407 24.046-10.020 48.094-10.020 72.14 0 148.29 70.136 298.583 140.274 446.872 208.407 4.008 4.008 10.020 6.012 14.028 10.020 8.016 4.008 8.016 12.024 0 18.036-4.008 4.008-10.020 6.012-14.028 10.020-148.29 68.133-296.579 138.27-444.868 206.403-26.050 12.024-50.098 12.024-76.148 0-148.29-68.133-296.579-138.27-444.868-208.407-6.012-2.004-10.020-4.008-14.028-6.012-8.016-6.012-8.016-16.032 0-22.044zM1007.967 475.044c-2.004 2.004-6.012 4.008-8.016 6.012-26.050 12.024-54.106 24.046-80.156 36.070-22.044 12.024-46.090 12.024-70.136 0-100.196-46.090-200.392-94.184-300.587-140.274-24.046-10.020-48.094-10.020-70.136 0-100.196 46.090-202.395 94.184-302.59 140.274-24.046 12.024-48.094 12.024-72.14 0s-50.098-24.046-74.144-34.066c-8.016-4.008-20.040-8.016-20.040-18.036 0-12.024 12.024-14.028 20.040-18.036 148.29-70.136 296.579-140.274 446.872-208.407 24.046-12.024 48.094-12.024 70.136-2.004 150.294 70.136 300.587 140.274 450.88 210.41 4.008 2.004 8.016 4.008 10.020 6.012 10.020 6.012 10.020 16.032 0 22.044z" />
<glyph unicode="&#xe019;" glyph-name="disqus" d="M527.029 587.264h-54.106v-244.478h54.106c82.16 0 140.274 40.078 140.274 122.238v0c0 80.156-58.114 122.238-140.274 122.238zM531.037 963.999c-272.532 0-492.962-224.438-492.962-498.974 0-74.144 16.032-144.282 44.086-206.403l-82.16-202.395 212.414 28.054c86.168-72.14 196.384-118.23 318.622-118.23 274.536 0 494.966 224.438 494.966 498.974s-220.43 498.974-494.966 498.974zM799.561 467.029c0-144.282-100.196-248.485-276.54-248.485h-184.36v492.962h186.364c174.34 0 274.536-100.196 274.536-244.478z" />
<glyph unicode="&#xe01a;" glyph-name="vkontakte" d="M991.937 270.646c-30.058 40.078-56.11 64.126-94.184 100.196-16.032 16.032-38.074 32.062-40.078 54.106-2.004 30.058 26.050 58.114 40.078 78.152 2.004 2.004 4.008 4.008 6.012 6.012s2.004 2.004 4.008 4.008c0 2.004 2.004 2.004 2.004 4.008 2.004 2.004 2.004 4.008 4.008 4.008 0 2.004 2.004 2.004 2.004 2.004 2.004 2.004 2.004 4.008 4.008 6.012 26.050 34.066 52.102 64.126 78.152 104.204 8.016 14.028 34.066 64.126 26.050 84.164-12.024 24.046-74.144 16.032-108.212 16.032-42.082 0-88.172 8.016-118.23-4.008-18.036-6.012-30.058-46.090-40.078-68.133-16.032-34.066-30.058-62.122-46.090-88.172 0-2.004-2.004-4.008-4.008-6.012 0 0 0 0 0 0 0-2.004-2.004-4.008-4.008-6.012 0 0 0 0 0 0-2.004-4.008-4.008-8.016-6.012-10.020 0-2.004-2.004-2.004-2.004-2.004 0-2.004-2.004-2.004-2.004-4.008-2.004-2.004-2.004-2.004-2.004-4.008-2.004 0-2.004-2.004-4.008-4.008 0 0-2.004-2.004-2.004-4.008-2.004 0-2.004-2.004-2.004-2.004-2.004-2.004-4.008-4.008-6.012-8.016-14.028-20.040-28.054-44.086-54.106-48.094-2.004 2.004-2.004 2.004-4.008 2.004 0 0 0 2.004 0 2.004-2.004 0-2.004 0-2.004 0 0 2.004-2.004 2.004-2.004 2.004s0 0-2.004 2.004c0 0 0 0 0 0s0 2.004-2.004 2.004c0 0 0 0 0 0 0 2.004-2.004 2.004-2.004 2.004s0 2.004 0 2.004c0 0-2.004 0-2.004 2.004 0 0 0 0 0 0 0 2.004 0 2.004-2.004 2.004 0 0 0 2.004 0 2.004s0 0 0 2.004c0 0-2.004 0-2.004 0 0 2.004 0 2.004 0 4.008 0 0 0 0 0 0-2.004 2.004-2.004 2.004-2.004 2.004 0 2.004 0 2.004 0 2.004s0 2.004 0 2.004c0 0 0 2.004-2.004 2.004 0 0 0 2.004 0 2.004s0 0 0 2.004c0 0 0 0 0 2.004 0 0 0 0 0 0 0 2.004 0 2.004-2.004 2.004 0 2.004 0 2.004 0 2.004 0 2.004 0 2.004 0 2.004 0 2.004 0 2.004 0 2.004 0 2.004 0 2.004 0 2.004 0 2.004 0 2.004 0 2.004 0 2.004 0 2.004 0 4.008 0 0 0 0 0 0 0 2.004 0 2.004 0 4.008 0 0 0 0 0 0 0 2.004 0 2.004 0 4.008 0 0-2.004 0-2.004 2.004 0 0 0 2.004 0 2.004s0 2.004 0 2.004c0 0 0 2.004 0 2.004s0 2.004 0 2.004c0 0 0 2.004 0 2.004 0 2.004 2.004 2.004 2.004 2.004 0 2.004 0 2.004 0 2.004 0 2.004 0 2.004 0 2.004 0 2.004 0 2.004 0 4.008 0 0 0 0 0 0 0 2.004 0 2.004 0 4.008 0 0 0 0 0 0 0 6.012 0 10.020 0 16.032 0 0 0 2.004 0 2.004 0 4.008 0 10.020 2.004 14.028 0 44.086 14.028 102.2-6.012 136.266-18.036 30.058-86.168 26.050-134.262 26.050-58.114 0-104.204-4.008-122.238-38.074 20.040-14.028 42.082-14.028 52.102-34.066 12.024-22.044 14.028-68.133 12.024-110.216 0-2.004 0-4.008 0-6.012 0-36.070-2.004-94.184-26.050-98.192s-44.086 32.062-58.114 50.098c-2.004 4.008-4.008 6.012-6.012 10.020 0 0-2.004 2.004-2.004 2.004-2.004 2.004-2.004 4.008-4.008 8.016 0 0-2.004 2.004-2.004 2.004-2.004 2.004-4.008 4.008-4.008 6.012-2.004 2.004-2.004 2.004-2.004 4.008-2.004 2.004-4.008 6.012-6.012 8.016-18.036 30.058-36.070 60.118-52.102 98.192-12.024 22.044-26.050 60.118-38.074 66.13-24.046 12.024-72.14 6.012-104.204 6.012-36.070 0-74.144 6.012-96.188-12.024 0-40.078 20.040-74.144 36.070-106.208 22.044-44.086 44.086-86.168 68.133-126.246 0-2.004 2.004-4.008 2.004-6.012 4.008-4.008 6.012-10.020 10.020-14.028 0-2.004 2.004-4.008 2.004-6.012 4.008-4.008 6.012-10.020 10.020-14.028 0-2.004 2.004-4.008 4.008-6.012 4.008-6.012 8.016-12.024 12.024-18.036 0 0 0 0 0 0 4.008-6.012 8.016-14.028 12.024-20.040 2.004-2.004 2.004-4.008 4.008-4.008 4.008-6.012 6.012-10.020 10.020-14.028 0-2.004 2.004-4.008 4.008-6.012 2.004-4.008 6.012-10.020 10.020-14.028 0-2.004 2.004-4.008 4.008-6.012 4.008-6.012 8.016-12.024 14.028-18.036 62.122-78.152 132.258-152.298 270.528-168.328 44.086-4.008 108.212-8.016 122.238 18.036 20.040 32.062-2.004 108.212 42.082 114.223 30.058 6.012 56.11-40.078 74.144-58.114 30.058-34.066 66.13-70.136 118.23-80.156 0 0 2.004 0 4.008 0 46.090 20.040 184.36-22.044 192.376 36.070 2.004 20.040-22.044 52.102-34.066 66.13z" />
<glyph unicode="&#xe01b;" glyph-name="whatsapp" d="M875.709 829.737c-96.188 96.188-224.438 148.29-360.704 148.29-280.548 0-508.994-228.446-508.994-508.994 0-88.172 24.046-176.344 68.133-254.497l-72.14-262.512 270.528 70.136c74.144-40.078 156.305-62.122 242.474-62.122v0c0 0 0 0 0 0 280.548 0 508.994 228.446 508.994 508.994 0 136.266-52.102 264.516-148.29 360.704zM515.005 46.208v0c-76.148 0-150.294 20.040-214.418 60.118l-16.032 8.016-160.313-42.082 42.082 156.305-10.020 16.032c-42.082 68.133-64.126 144.282-64.126 224.438 0 234.458 190.372 422.826 422.826 422.826 112.219 0 218.426-44.086 298.583-124.242s124.242-186.364 124.242-298.583c0-232.454-190.372-422.826-422.826-422.826zM747.459 362.826c-14.028 6.012-76.148 38.074-88.172 42.082-10.020 4.008-20.040 6.012-28.054-6.012-8.016-14.028-32.062-42.082-40.078-50.098s-14.028-10.020-28.054-4.008c-12.024 6.012-52.102 20.040-102.2 64.126-36.070 32.062-62.122 74.144-70.136 88.172-8.016 12.024 0 18.036 6.012 26.050 6.012 4.008 12.024 14.028 18.036 22.044 8.016 6.012 10.020 12.024 14.028 20.040s2.004 16.032-2.004 22.044c-2.004 6.012-28.054 70.136-38.074 94.184-12.024 26.050-22.044 22.044-30.058 22.044-6.012 0-16.032 0-24.046 0s-22.044-2.004-34.066-14.028c-12.024-14.028-44.086-44.086-44.086-106.208 0-64.126 46.090-124.242 52.102-132.258s90.176-136.266 216.422-192.376c30.058-12.024 54.106-20.040 72.14-26.050 32.062-10.020 58.114-8.016 80.156-6.012 26.050 4.008 76.148 32.062 86.168 62.122 12.024 28.054 12.024 54.106 8.016 60.118-4.008 4.008-12.024 8.016-24.046 14.028z" />
<glyph unicode="&#xe01c;" glyph-name="patreon" d="M384.751 268.642c-2.004-4.008-2.004-6.012-2.004-10.020 0-52.102 0-102.2 0-154.302 0-8.016 2.004-10.020 10.020-12.024 144.282-44.086 274.536-16.032 386.755 84.164 70.136 62.122 110.216 142.278 124.242 234.458 26.050 194.38-92.18 376.736-280.548 430.841-218.426 62.122-440.861-68.133-490.958-286.56-8.016-28.054-10.020-58.114-10.020-86.168-2.004-168.328-2.004-336.657-2.004-502.982 0-14.028 0-14.028-12.024-14.028-32.062 0-66.13 0-98.192 0-8.016 0-10.020 2.004-10.020 10.020 0 172.336-2.004 346.677 0 519.013 2.004 92.18 28.054 176.344 78.152 254.497 80.156 126.246 194.38 204.399 340.665 234.458 44.086 8.016 90.176 10.020 134.262 6.012 114.223-8.016 216.422-52.102 302.59-128.25 72.14-64.126 122.238-144.282 150.294-236.462 10.020-34.066 16.032-68.133 18.036-102.2 6.012-72.14 0-140.274-24.046-208.407-54.106-152.298-156.305-256.5-306.598-316.618-58.114-22.044-120.234-32.062-182.356-32.062-74.144 0-146.286 0-218.426 0-14.028 0-14.028 0-14.028 14.028 0 168.328 0 336.657 0 504.986 2.004 108.212 84.164 206.403 192.376 224.438 128.25 22.044 244.478-56.11 272.532-182.356 28.054-128.25-60.118-258.504-188.368-278.544-58.114-10.020-112.219 0-162.317 30.058-2.004 2.004-6.012 2.004-8.016 4.008z" />
<glyph unicode="&#xe01d;" glyph-name="storehouse" d="M513.001 635.357l-288.564-166.324v334.653l288.564-168.328 296.579 172.336-296.579 170.332-296.579-170.332v-342.669l296.579-170.332 288.564 166.324v-334.653l-288.564 168.328-296.579-172.336 296.579-170.332 296.579 170.332v342.669z" />
<glyph unicode="&#xe01e;" glyph-name="pocket" d="M1026.003 801.682c0 28.054 2.004 54.106-14.028 78.152-12.024 18.036-32.062 34.066-52.102 40.078-28.054 8.016-58.114 6.012-84.164 4.008-120.234 0-242.474 2.004-362.708 2.004-14.028 0-26.050 0-40.078 0-16.032 0-32.062 0-50.098 0-58.114 0-118.23 0-178.348 0-30.058 0-60.118 0-90.176 0-16.032 0-32.062 0-48.094 0-14.028 0-26.050 0-38.074-4.008-42.082-12.024-68.133-52.102-68.133-96.188 0-60.118 0-120.234 0-180.352 0-58.114-2.004-118.23 2.004-178.348 4.008-54.106 20.040-110.216 42.082-160.313 42.082-90.176 110.216-166.324 194.38-220.43 92.18-58.114 202.395-86.168 310.606-78.152 106.208 8.016 208.407 50.098 290.567 118.23 78.152 62.122 134.262 146.286 164.32 240.47 16.032 54.106 22.044 112.219 22.044 168.328 0 58.114 0 118.23 0 178.348 0 30.058 0 60.118 0 88.172zM821.604 569.228c-6.012-26.050-32.062-44.086-50.098-62.122-46.090-44.086-92.18-88.172-138.27-130.254-24.046-24.046-46.090-46.090-70.136-68.133-18.036-16.032-42.082-24.046-66.13-18.036-28.054 6.012-48.094 32.062-66.13 50.098-24.046 22.044-46.090 44.086-68.133 64.126-46.090 44.086-92.18 88.172-138.27 134.262-34.066 34.066-28.054 96.188 20.040 116.227 22.044 8.016 48.094 6.012 66.13-6.012 12.024-10.020 24.046-20.040 34.066-32.062 12.024-10.020 24.046-22.044 34.066-32.062 46.090-44.086 88.172-88.172 134.262-128.25 52.102 48.094 104.204 98.192 156.305 148.29 22.044 20.040 42.082 48.094 74.144 54.106 24.046 4.008 50.098-6.012 66.13-24.046 14.028-18.036 20.040-44.086 12.024-66.13z" />
<glyph unicode="&#xe01f;" glyph-name="mail" d="M547.068 346.794c-10.020-8.016-22.044-14.028-34.066-14.028s-24.046 6.012-34.066 14.028l-478.935 390.763v-615.201h1026.003v615.201zM513.001 465.025c10.020 0 20.040 4.008 28.054 10.020l406.794 332.65h-869.697l406.794-332.65c8.016-6.012 18.036-10.020 28.054-10.020z" />
<glyph unicode="&#xe020;" glyph-name="blogger" d="M953.863 587.264h-44.086c-44.086 0-68.133 30.058-68.133 62.122v28.054c0 146.286-162.317 300.587-300.587 300.587h-216.422c-182.356 0-324.634-144.282-324.634-326.638v-388.759c0-170.332 146.286-310.606 298.583-310.606h410.802c168.328 0 316.618 142.278 316.618 314.614v246.481c0 46.090-16.032 74.144-72.14 74.144zM324.634 711.506h186.364c32.062 0 60.118-28.054 60.118-62.122 0-32.062-28.054-62.122-60.118-62.122h-186.364c-32.062 0-60.118 30.058-60.118 62.122s28.054 62.122 60.118 62.122zM695.357 218.544h-370.724c-32.062 0-60.118 24.046-60.118 56.11 0 34.066 28.054 56.11 60.118 56.11h370.724c32.062 0 60.118-22.044 60.118-56.11 0-32.062-28.054-56.11-60.118-56.11z" />
<glyph unicode="&#xe021;" glyph-name="technorati" d="M1026.003 978.027v-709.385c-174.34-106.208-382.747-128.25-575.123-92.18-96.188-50.098-182.356-120.234-276.54-174.34 6.012 74.144 16.032 146.286 24.046 220.43 2.004 30.058 12.024 68.133-20.040 86.168-118.23 94.184-198.388 248.485-180.352 402.786 10.020 100.196 62.122 184.36 124.242 266.52zM847.655 847.772c-78.152 58.114-180.352 84.164-276.54 80.156-110.216-2.004-220.43-42.082-294.575-122.238-42.082-44.086-74.144-104.204-74.144-166.324-4.008-86.168 44.086-168.328 110.216-218.426 140.274-106.208 346.677-116.227 498.974-30.058 86.168 48.094 154.302 134.262 156.305 234.458 2.004 90.176-48.094 172.336-120.234 222.434z" />
<glyph unicode="&#xe022;" glyph-name="reddit" d="M1026.003 473.040c0 56.11-44.086 100.196-100.196 100.196-32.062 0-60.118-14.028-78.152-38.074-80.156 58.114-192.376 94.184-318.622 96.188l74.144 220.43 184.36-44.086c4.008 0 6.012 0 8.016 0 2.004-42.082 36.070-76.148 80.156-76.148s78.152 36.070 78.152 80.156c0 44.086-34.066 78.152-78.152 78.152-34.066 0-60.118-18.036-74.144-46.090 0 0-2.004 2.004-4.008 2.004l-202.395 48.094c-10.020 2.004-20.040-4.008-22.044-12.024l-86.168-250.489c-122.238-4.008-230.45-38.074-310.606-94.184-18.036 22.044-44.086 36.070-76.148 36.070-56.11 0-100.196-44.086-100.196-100.196 0-40.078 24.046-76.148 60.118-92.18-4.008-14.028-6.012-30.058-6.012-46.090 0-164.32 204.399-298.583 456.892-298.583s456.892 134.262 456.892 298.583c0 14.028-2.004 30.058-6.012 44.086 38.074 16.032 64.126 52.102 64.126 94.184zM278.544 392.884c0 40.078 34.066 74.144 74.144 74.144s74.144-34.066 74.144-74.144c0-40.078-34.066-74.144-74.144-74.144s-74.144 34.066-74.144 74.144zM679.326 188.486c-34.066-34.066-88.172-50.098-166.324-50.098s-132.258 16.032-166.324 50.098c-4.008 4.008-4.008 12.024 0 18.036 4.008 4.008 12.024 4.008 16.032 0 30.058-30.058 78.152-44.086 150.294-44.086 70.136 0 120.234 14.028 150.294 44.086 4.008 4.008 12.024 4.008 16.032 0 4.008-6.012 4.008-14.028 0-18.036zM675.318 318.74c-42.082 0-76.148 32.062-76.148 74.144 0 40.078 34.066 74.144 76.148 74.144 40.078 0 72.14-34.066 72.14-74.144 0-42.082-32.062-74.144-72.14-74.144z" />
<glyph unicode="&#xe023;" glyph-name="dribbble" d="M510.998 974.019c-282.552 0-513.001-230.45-513.001-513.001s230.45-513.001 513.001-513.001c284.556 0 513.001 230.45 513.001 513.001s-228.446 513.001-513.001 513.001zM851.663 737.557c60.118-74.144 98.192-168.328 98.192-272.532-14.028 4.008-158.309 32.062-304.594 14.028-4.008 8.016-6.012 16.032-10.020 22.044-8.016 22.044-18.036 44.086-28.054 64.126 160.313 66.13 234.458 160.313 244.478 172.336zM510.998 899.874c112.219 0 214.418-42.082 290.567-110.216-6.012-12.024-72.14-100.196-228.446-158.309-72.14 130.254-152.298 238.466-164.32 256.5 34.066 8.016 68.133 12.024 102.2 12.024zM326.638 857.791c10.020-16.032 88.172-124.242 162.317-254.497-206.403-54.106-386.755-52.102-406.794-52.102 30.058 136.266 120.234 248.485 244.478 306.598zM74.144 461.017c0 4.008 0 8.016 0 14.028 18.036-2.004 230.45-4.008 450.88 62.122 12.024-24.046 24.046-50.098 34.066-74.144-6.012-2.004-10.020-4.008-16.032-6.012-226.442-72.14-346.677-272.532-356.696-288.564-70.136 78.152-112.219 180.352-112.219 292.571zM510.998 22.16c-100.196 0-194.38 36.070-268.524 92.18 8.016 18.036 96.188 188.368 344.673 274.536 0 0 2.004 0 2.004 2.004 62.122-160.313 88.172-294.575 94.184-332.65-52.102-22.044-110.216-36.070-172.336-36.070zM757.479 98.31c-6.012 26.050-28.054 154.302-86.168 312.61 138.27 22.044 258.504-14.028 272.532-20.040-18.036-122.238-88.172-226.442-186.364-292.571z" />
<glyph unicode="&#xe024;" glyph-name="stumbleupon" d="M513.001 681.447c-30.058 0-54.106-24.046-54.106-54.106v-328.642c-2.004-124.242-104.204-226.442-230.45-226.442s-228.446 104.204-228.446 230.45c0 2.004 0 142.278 0 142.278h176.344v-140.274c0-30.058 24.046-54.106 54.106-54.106s54.106 24.046 54.106 54.106v330.646c4.008 122.238 104.204 220.43 228.446 220.43s224.438-98.192 228.446-220.43v-74.144l-104.204-30.058-70.136 32.062v64.126c0 30.058-24.046 54.106-54.106 54.106zM1026.003 302.708c0-126.246-102.2-230.45-228.446-230.45s-228.446 102.2-230.45 228.446v142.278l70.136-32.062 104.204 32.062v-144.282c0-30.058 24.046-54.106 54.106-54.106s54.106 24.046 54.106 54.106v146.286h176.344c0 0 0-140.274 0-142.278z" />
<glyph unicode="&#xe025;" glyph-name="digg" d="M308.602 629.346h102.2v-348.681h-102.2zM164.32 773.627h102.2v-492.962h-266.52v348.681h164.32zM164.32 547.185h-62.122v-184.36h62.122zM308.602 669.424h102.2v104.204h-102.2zM450.88 629.346h266.52v-472.923h-266.52v82.16h164.32v42.082h-164.32zM553.080 362.826h62.122v184.36h-62.122zM1026.003 629.346v-472.923h-266.52v82.16h164.32v42.082h-164.32v348.681zM923.803 547.185h-62.122v-184.36h62.122z" />
<glyph unicode="&#xe026;" glyph-name="envato" d="M829.619 970.011c-30.058 16.032-116.227 6.012-220.43-26.050-180.352-124.242-332.65-306.598-344.673-599.17-2.004-6.012-20.040 2.004-22.044 4.008-50.098 94.184-68.133 192.376-28.054 334.653 8.016 12.024-18.036 28.054-22.044 24.046-8.016-10.020-46.090-50.098-70.136-92.18-124.242-214.418-44.086-486.951 172.336-607.185 214.418-120.234 486.951-42.082 607.185 172.336 138.27 248.485 10.020 743.451-72.14 789.541z" />
<glyph unicode="&#xe027;" glyph-name="behance" d="M923.803 681.447h-256.5v60.118h256.5zM498.974 438.974c20.040-28.054 30.058-60.118 30.058-100.196 0-32.062-6.012-60.118-18.036-82.16-14.028-24.046-30.058-42.082-50.098-58.114-22.044-14.028-46.090-24.046-72.14-32.062-26.050-6.012-54.106-10.020-82.16-10.020h-306.598v637.244h296.579c30.058 0 58.114-6.012 84.164-12.024 24.046-6.012 44.086-16.032 62.122-28.054s32.062-30.058 42.082-50.098c10.020-18.036 14.028-44.086 14.028-74.144s-6.012-58.114-22.044-78.152c-14.028-22.044-36.070-40.078-64.126-52.102 40.078-12.024 68.133-32.062 86.168-60.118zM134.262 537.166h144.282c26.050 0 46.090 2.004 62.122 14.028s24.046 28.054 24.046 56.11c0 14.028-2.004 26.050-8.016 36.070-6.012 8.016-12.024 16.032-22.044 22.044-8.016 4.008-18.036 10.020-30.058 12.024s-24.046 4.008-36.070 4.008h-134.262zM390.763 346.794c0 32.062-10.020 54.106-28.054 68.133s-42.082 20.040-72.14 20.040h-156.305v-174.34h152.298c14.028 0 28.054 2.004 40.078 4.008 12.024 4.008 22.044 8.016 32.062 14.028s18.036 14.028 22.044 26.050c6.012 10.020 10.020 24.046 10.020 42.082zM1026.003 352.806h-330.646c0-32.062 12.024-70.136 32.062-88.172 18.036-18.036 46.090-28.054 80.156-28.054 26.050 0 48.094 8.016 66.13 22.044 18.036 12.024 28.054 22.044 34.066 42.082h110.216c-18.036-62.122-46.090-96.188-82.16-120.234s-80.156-38.074-132.258-38.074c-36.070 0-68.133 6.012-98.192 18.036-28.054 12.024-52.102 28.054-72.14 48.094-20.040 22.044-36.070 48.094-48.094 78.152-10.020 28.054-16.032 60.118-16.032 96.188 0 34.066 6.012 66.13 18.036 96.188 10.020 30.058 26.050 54.106 46.090 76.148 22.044 22.044 46.090 38.074 74.144 52.102 30.058 12.024 62.122 18.036 96.188 18.036 38.074 0 72.14-8.016 102.2-22.044 28.054-16.032 52.102-36.070 70.136-60.118 20.040-26.050 32.062-56.11 40.078-88.172s12.024-72.14 10.020-102.2zM899.757 434.966c-4.008 30.058-14.028 54.106-28.054 70.136-16.032 18.036-42.082 26.050-72.14 26.050-20.040 0-36.070-4.008-50.098-12.024-12.024-6.012-24.046-14.028-32.062-24.046s-12.024-20.040-16.032-32.062c-4.008-10.020-6.012-18.036-6.012-28.054z" />
<glyph unicode="&#xe028;" glyph-name="delicious" d="M1026.003 465.025h-513.001v-513.001h-513.001v513.001h513.001v513.001h513.001z" />
<glyph unicode="&#xe029;" glyph-name="deviantart1" d="M967.889 428.954c-48.094 58.114-108.212 94.184-176.344 122.238-88.172 36.070-180.352 50.098-274.536 52.102-6.012 0-14.028 0-24.046 0 0 32.062 0 62.122 0 96.188-42.082-4.008-82.16-10.020-134.262-14.028 0-6.012 0-8.016 0-12.024 0-24.046 0-50.098 0-74.144 2.004-8.016-2.004-12.024-10.020-14.028-68.133-14.028-132.258-36.070-192.376-72.14-46.090-28.054-86.168-62.122-116.227-108.212-36.070-54.106-50.098-114.223-34.066-176.344 164.32 0 322.63 0 486.951 0 0 102.2 0 196.384 0 294.575 20.040 0 42.082 0 62.122 0 52.102-4.008 104.204-12.024 152.298-32.062 64.126-30.058 108.212-76.148 126.246-144.282 2.004-4.008 2.004-16.032 4.008-16.032-58.114 0-108.212 0-170.332 0 0 0 0 10.020 0 14.028 0 38.074 0 78.152 0 118.23 0 8.016-2.004 12.024-10.020 12.024-26.050 6.012-48.094 10.020-74.144 14.028-16.032 2.004-40.078 2.004-50.098 4.008 0-90.176 0-182.356 0-264.516 164.32 0 322.63 0 486.951 0 2.004 20.040 6.012 30.058 6.012 44.086 2.004 60.118-20.040 110.216-58.114 156.305zM358.7 330.763c-62.122 0-112.219 0-168.328 0 4.008 72.14 86.168 162.317 168.328 172.336 0-56.11 0-110.216 0-172.336z" />
<glyph unicode="&#xe02a;" glyph-name="forrst" d="M460.9-47.976h-376.736l428.837 1026.003 428.837-1026.003h-376.736v170.332l172.336 86.168-12.024 26.050-160.313-80.156v78.152l98.192 54.106-14.028 26.050-84.164-44.086v114.223h-104.204v-176.344l-86.168 60.118-16.032-24.046 102.2-72.14z" />
<glyph unicode="&#xe02b;" glyph-name="play" d="M591.154 487.068l132.258 132.258-200.392 116.227c0 0-392.767 226.442-414.81 238.466-2.004 2.004-4.008 4.008-8.016 4.008zM947.851 489.072c-18.036 10.020-172.336 100.196-202.395 118.23l-136.266-136.266 138.27-140.274c38.074 22.044 178.348 102.2 198.388 114.223 24.046 14.028 22.044 34.066 2.004 44.086zM70.136 976.023c-4.008-6.012-8.016-14.028-8.016-24.046 0-46.090 0-484.947 0-484.947s0-472.923 0-492.962c0-6.012 2.004-10.020 4.008-14.028l508.994 510.998zM591.154 453.002l-500.978-500.978c2.004 0 6.012 2.004 8.016 4.008 20.040 12.024 424.829 244.478 424.829 244.478l204.399 118.23z" />
<glyph unicode="&#xe02c;" glyph-name="zerply" d="M551.076 777.635c-16.032-2.004-32.062-6.012-46.090-8.016-46.090-6.012-92.18-10.020-138.27-4.008-20.040 2.004-40.078 6.012-58.114 16.032-26.050 12.024-34.066 26.050-32.062 56.11 2.004 22.044 6.012 46.090 18.036 66.13 12.024 22.044 26.050 42.082 40.078 62.122 10.020 14.028 20.040 16.032 34.066 8.016 22.044-14.028 48.094-22.044 74.144-26.050 52.102-10.020 104.204-12.024 156.305-12.024 70.136 0 140.274 10.020 208.407 24.046 4.008 0 6.012 0 8.016 0 12.024 0 18.036-4.008 16.032-16.032-4.008-26.050-6.012-54.106-10.020-80.156 0-6.012-4.008-14.028-8.016-18.036-148.29-170.332-296.579-340.665-442.864-510.998-12.024-14.028-14.028-20.040-12.024-38.074 10.020-2.004 18.036-2.004 28.054-2.004 44.086-6.012 84.164-24.046 122.238-46.090 32.062-20.040 62.122-38.074 94.184-56.11s62.122-34.066 96.188-40.078c42.082-10.020 82.16-12.024 122.238-2.004 18.036 6.012 36.070 14.028 50.098 24.046 2.004 2.004 4.008 2.004 8.016 6.012 2.004-18.036 4.008-34.066 4.008-50.098-2.004-42.082-10.020-80.156-32.062-116.227-22.044-34.066-50.098-56.11-90.176-62.122-28.054-2.004-52.102 4.008-78.152 10.020-56.11 18.036-106.208 46.090-154.302 80.156-24.046 16.032-48.094 36.070-72.14 54.106-48.094 34.066-100.196 58.114-158.309 64.126-26.050 4.008-54.106 6.012-82.16 6.012-18.036 2.004-36.070 0-54.106 0-12.024 0-20.040 6.012-20.040 18.036 0 34.066 0 66.13 2.004 98.192 0 10.020 4.008 20.040 10.020 26.050 130.254 154.302 260.508 308.602 390.763 462.904 2.004 2.004 4.008 4.008 6.012 6.012z" />
<glyph unicode="&#xe02d;" glyph-name="wikipedia" d="M96.188 677.44c-24.046 38.074-62.122 76.148-92.18 88.172l-4.008 2.004v36.070l2.004 2.004h262.512c0-8.016 0-22.044 0-36.070-36.070-4.008-76.148-22.044-66.13-60.118 66.13-144.282 126.246-292.571 190.372-438.857l112.219 208.407c-44.086 88.172-74.144 178.348-122.238 264.516-14.028 24.046-56.11 26.050-86.168 26.050v34.066h246.481v-34.066c-22.044-2.004-48.094-8.016-44.086-34.066l70.136-154.302c22.044 48.094 48.094 96.188 68.133 146.286 10.020 40.078-36.070 42.082-64.126 44.086v32.062h220.43v-32.062c-34.066-2.004-64.126-12.024-82.16-36.070-42.082-66.13-74.144-142.278-108.212-214.418 34.066-78.152 68.133-156.305 102.2-228.446l188.368 432.845c-14.028 28.054-42.082 38.074-70.136 44.086l-2.004 34.066h208.407v-34.066c-10.020-2.004-18.036-4.008-26.050-8.016-16.032-8.016-32.062-24.046-42.082-42.082l-258.504-595.162h-44.086l-122.238 290.567-150.294-290.567h-44.086c-88.172 182.356-150.294 372.728-242.474 553.080z" />
<glyph unicode="&#xe02e;" glyph-name="apple" d="M927.811 633.354c-72.14-24.046-120.234-124.242-120.234-198.388 0-96.188 54.106-196.384 142.278-220.43-24.046-84.164-92.18-190.372-154.302-234.458-26.050-18.036-56.11-26.050-94.184-26.050-24.046 0-52.102 4.008-90.176 20.040-30.058 14.028-58.114 20.040-76.148 20.040-16.032 0-50.098-10.020-96.188-28.054-26.050-8.016-48.094-14.028-62.122-14.028-42.082 0-78.152 18.036-116.227 48.094-118.23 108.212-184.36 266.52-184.36 432.845 0 162.317 102.2 318.622 260.508 318.622 48.094 0 82.16-10.020 114.223-26.050 30.058-18.036 56.11-24.046 84.164-24.046 22.044 0 48.094 4.008 72.14 14.028 62.122 24.046 102.2 36.070 126.246 36.070 60.118 0 108.212-18.036 148.29-54.106 16.032-16.032 32.062-38.074 46.090-64.126zM506.99 745.573c0 56.11 24.046 106.208 62.122 154.302 38.074 42.082 90.176 68.133 146.286 78.152 0-58.114-20.040-116.227-58.114-162.317-44.086-48.094-92.18-70.136-150.294-70.136z" />
<glyph unicode="&#xe02f;" glyph-name="flattr" d="M1026.003 352.806c0-66.13-8.016-132.258-32.062-196.384-42.082-108.212-120.234-170.332-232.454-194.38-34.066-8.016-68.133-10.020-102.2-10.020-192.376 0-384.751 0-577.127 0-2.004 0-6.012 0-8.016 0 0 0 0 2.004 0 2.004 36.070 36.070 72.14 72.14 108.212 108.212 100.196 100.196 200.392 200.392 298.583 298.583 2.004 2.004 2.004 4.008 4.008 4.008 6.012 6.012 10.020 10.020 18.036 6.012s10.020-10.020 10.020-18.036c0-50.098 0-102.2 0-152.298 0-4.008 0-8.016 0-10.020s4.008-2.004 4.008-2.004c44.086 0 88.172 0 130.254 2.004 16.032 2.004 34.066 6.012 48.094 12.024 48.094 16.032 74.144 52.102 82.16 100.196 6.012 26.050 8.016 52.102 8.016 80.156 2.004 90.176 2.004 182.356 2.004 274.536 0 6.012 0 10.020 6.012 14.028 74.144 76.148 148.29 150.294 224.438 224.438 2.004 2.004 2.004 6.012 4.008 8.016 2.004 0 4.008 0 4.008-2.004s0-6.012 0-8.016c0-180.352 0-360.704 0-541.056zM238.466 272.65c0 90.176 0 180.352 2.004 268.524 0 28.054 2.004 56.11 6.012 84.164 10.020 52.102 38.074 88.172 90.176 104.204 10.020 4.008 22.044 8.016 32.062 8.016 48.094 2.004 94.184 2.004 142.278 4.008 0 0 2.004-2.004 2.004-2.004 0-2.004 0-6.012 0-8.016 0-50.098 0-100.196 0-150.294 0-4.008-2.004-6.012 0-8.016 2.004-6.012 6.012-10.020 10.020-14.028s10.020 0 16.032 4.008c2.004 2.004 4.008 4.008 6.012 6.012 134.262 134.262 266.52 266.52 400.782 400.782 2.004 2.004 4.008 8.016 8.016 8.016-6.012 0-8.016 0-10.020 0-192.376 0-384.751 0-577.127 0-34.066 0-68.133-2.004-100.196-10.020-116.227-24.046-196.384-90.176-236.462-202.395-22.044-62.122-30.058-126.246-30.058-190.372 0-180.352 0-360.704 0-539.052 0-4.008 0-6.012 0-10.020 4.008 2.004 6.012 4.008 8.016 6.012 74.144 76.148 150.294 150.294 224.438 226.442 4.008 4.008 6.012 8.016 6.012 14.028z" />
<glyph unicode="&#xe030;" glyph-name="github" d="M969.893 621.33c0 72.14-24.046 132.258-68.133 178.348 8.016 16.032 30.058 84.164-6.012 176.344 0 0-56.11 18.036-182.356-68.133-54.106 14.028-110.216 22.044-168.328 22.044-56.11 0-112.219-8.016-166.324-22.044-128.25 86.168-182.356 68.133-182.356 68.133-38.074-92.18-14.028-160.313-8.016-176.344-42.082-46.090-68.133-106.208-68.133-178.348 0-256.5 156.305-312.61 304.594-330.646-20.040-16.032-38.074-46.090-44.086-88.172-38.074-18.036-134.262-46.090-192.376 56.11 0 0-36.070 62.122-102.2 68.133 0 0-66.13 0-6.012-40.078 0 0 44.086-22.044 74.144-98.192 0 0 40.078-118.23 224.438-78.152 2.004-56.11 2.004-142.278 2.004-158.309h330.646c0 22.044 0 128.25 0 216.422 0 62.122-20.040 102.2-44.086 124.242 148.29 16.032 302.59 72.14 302.59 328.642zM132.258 294.692c-2.004-2.004-8.016-4.008-12.024-2.004s-8.016 8.016-6.012 10.020c2.004 4.008 6.012 6.012 12.024 2.004 4.008-2.004 6.012-6.012 6.012-10.020zM158.309 264.634c-2.004-2.004-10.020 0-14.028 4.008s-4.008 10.020-2.004 14.028c4.008 2.004 10.020 2.004 14.028-4.008 4.008-4.008 6.012-10.020 2.004-14.028zM184.36 226.56c-4.008-2.004-10.020 0-14.028 6.012s-4.008 14.028 0 16.032c4.008 2.004 10.020 0 14.028-6.012s4.008-12.024 0-16.032zM220.43 190.489c-4.008-4.008-12.024-4.008-16.032 2.004-6.012 6.012-8.016 12.024-4.008 16.032 4.008 6.012 12.024 4.008 16.032-2.004 6.012-4.008 8.016-12.024 4.008-16.032zM270.528 168.446c-2.004-6.012-10.020-8.016-16.032-6.012-8.016 2.004-14.028 8.016-12.024 14.028s10.020 8.016 18.036 6.012c6.012-2.004 12.024-8.016 10.020-14.028zM310.606 154.418c-8.016 0-14.028 4.008-14.028 10.020s6.012 10.020 14.028 10.020c8.016 0 14.028-4.008 14.028-10.020s-6.012-10.020-14.028-10.020zM362.708 160.43c-8.016-2.004-14.028 2.004-16.032 8.016 0 4.008 6.012 10.020 14.028 12.024s14.028-2.004 16.032-8.016c0-4.008-6.012-10.020-14.028-12.024z" />
<glyph unicode="&#xe031;" glyph-name="renren" d="M513.001 270.646c0 0 0 0 0 0s0 0 0 0zM238.466 475.044c2.004 14.028 6.012 28.054 8.016 42.082 4.008 14.028 2.004 30.058 2.004 44.086v78.152c0 40.078 0 78.152 0 116.227-8.016 0-18.036-2.004-24.046-4.008-24.046-8.016-44.086-14.028-62.122-24.046-74.144-36.070-130.254-100.196-154.302-188.368-22.044-82.16 0-170.332 34.066-224.438 8.016-12.024 18.036-30.058 28.054-38.074 10.020 0 18.036 8.016 24.046 14.028 14.028 8.016 28.054 18.036 40.078 28.054 6.012 4.008 10.020 10.020 16.032 14.028 40.078 34.066 68.133 86.168 88.172 142.278zM513.001 270.646c0 0 0 0 0 0s0 0 0 0zM318.622 328.759c-6.012 12.024-10.020 24.046-16.032 36.070-2.004 6.012-4.008 12.024-6.012 18.036v0c-6.012-12.024-12.024-22.044-18.036-32.062-10.020-20.040-22.044-38.074-34.066-54.106-18.036-22.044-36.070-44.086-56.11-60.118-10.020-10.020-22.044-18.036-32.062-28.054 0 0 0-2.004 0-2.004 6.012-2.004 12.024-6.012 18.036-8.016 14.028-6.012 28.054-12.024 42.082-16.032 52.102-14.028 116.227-10.020 164.32 4.008 12.024 4.008 40.078 12.024 48.094 20.040v0c-12.024 6.012-22.044 16.032-32.062 24.046-30.058 28.054-56.11 60.118-78.152 98.192zM1015.983 539.17c-22.044 90.176-78.152 152.298-152.298 190.372-18.036 8.016-38.074 16.032-62.122 22.044-6.012 2.004-16.032 4.008-24.046 4.008 0-38.074 0-76.148-2.004-116.227v-76.148c0-16.032 0-32.062 2.004-46.090 4.008-14.028 8.016-28.054 10.020-42.082 20.040-56.11 48.094-108.212 88.172-142.278 6.012-4.008 10.020-8.016 16.032-14.028 12.024-10.020 26.050-20.040 40.078-28.054 6.012-4.008 14.028-14.028 24.046-14.028 10.020 8.016 20.040 26.050 28.054 38.074 34.066 54.106 56.11 142.278 32.062 224.438zM781.525 296.696c-12.024 16.032-24.046 34.066-34.066 54.106-6.012 10.020-12.024 20.040-18.036 32.062v0c-2.004-6.012-4.008-12.024-6.012-18.036-6.012-12.024-10.020-24.046-16.032-36.070-22.044-38.074-48.094-70.136-78.152-96.188-10.020-10.020-20.040-20.040-32.062-26.050v0c8.016-8.016 36.070-16.032 48.094-20.040 48.094-14.028 112.219-18.036 164.32-4.008 14.028 4.008 28.054 10.020 42.082 16.032 6.012 2.004 12.024 6.012 18.036 8.016 0 2.004 0 2.004 0 2.004-10.020 10.020-22.044 18.036-32.062 28.054-20.040 16.032-38.074 38.074-56.11 60.118zM677.322 471.036c4.008 12.024 6.012 26.050 8.016 40.078 4.008 12.024 2.004 30.058 2.004 46.090v86.168c0 38.074 0 74.144 0 112.219-2.004 0-2.004 0-4.008 0-12.024-2.004-20.040-2.004-38.074-8.016-22.044-6.012-44.086-18.036-62.122-28.054-20.040-10.020-34.066-26.050-50.098-38.074-6.012-4.008-14.028-12.024-20.040-20.040 0 0 0 0 0 0s0-2.004 0-2.004c8.016-10.020 16.032-20.040 22.044-30.058 16.032-22.044 30.058-48.094 38.074-78.152 20.040-68.133 12.024-154.302-14.028-208.407-10.020-18.036-18.036-34.066-30.058-48.094-4.008-8.016-10.020-14.028-16.032-22.044 0 0 0 0 0 0s0 0 0-2.004c0 0 2.004 0 2.004 0 24.046 14.028 44.086 38.074 64.126 54.106 14.028 10.020 24.046 24.046 34.066 36.070 26.050 32.062 48.094 66.13 64.126 110.216zM513.001 272.65c-6.012 8.016-12.024 14.028-16.032 22.044-12.024 14.028-22.044 30.058-30.058 48.094-26.050 54.106-36.070 140.274-14.028 210.41 8.016 28.054 22.044 54.106 36.070 76.148 8.016 10.020 16.032 20.040 24.046 30.058 0 0 0 2.004 0 2.004s0 0 0 0c-6.012 8.016-14.028 16.032-20.040 20.040-16.032 12.024-32.062 28.054-50.098 38.074s-40.078 22.044-62.122 28.054c-18.036 6.012-26.050 6.012-38.074 8.016-2.004 0-2.004 0-4.008 0 0-38.074 0-74.144 0-112.219v-86.168c0-16.032-2.004-34.066 2.004-46.090 2.004-14.028 4.008-28.054 8.016-40.078 16.032-44.086 38.074-78.152 64.126-110.216 10.020-12.024 20.040-26.050 34.066-36.070 20.040-16.032 40.078-40.078 64.126-54.106 0 0 0 0 2.004 0 0 2.004 0 2.004 0 2.004s0 0 0 0z" />
<glyph unicode="&#xe032;" glyph-name="friendfeed" d="M1026.003 783.647h-152.298c-30.058 0-62.122-40.078-62.122-94.184v-90.176h180.352v-178.348h-180.352v-450.88h-180.352v450.88h-270.528v-450.88h-180.352v450.88h-180.352v178.348h180.352v90.176c0 150.294 108.212 270.528 242.474 270.528h152.298v-176.344h-152.298c-30.058 0-62.122-40.078-62.122-94.184v-90.176h270.528v90.176c0 150.294 108.212 270.528 242.474 270.528h152.298z" />
<glyph unicode="&#xe033;" glyph-name="newsvine" d="M549.072 100.312l88.172 64.126c0 4.008 0 6.012 0 8.016 0 40.078 32.062 74.144 72.14 74.144s74.144-34.066 74.144-74.144c0-40.078-34.066-72.14-74.144-72.14-14.028 0-28.054 4.008-38.074 12.024l-122.238-88.172v-72.14h-72.14v216.422l-124.242 90.176c-12.024-6.012-24.046-10.020-36.070-10.020-40.078 0-74.144 34.066-74.144 74.144s34.066 72.14 74.144 72.14c40.078 0 72.14-32.062 72.14-72.14 0-4.008 0-8.016-2.004-12.024l90.176-66.13v216.422l-124.242 90.176c-12.024-6.012-24.046-10.020-36.070-10.020-40.078 0-74.144 34.066-74.144 74.144s34.066 72.14 74.144 72.14c40.078 0 72.14-32.062 72.14-72.14 0-4.008 0-10.020-2.004-14.028l90.176-64.126v202.395l-126.246 92.18c-10.020-6.012-22.044-10.020-34.066-10.020-40.078 0-74.144 32.062-74.144 72.14s34.066 74.144 74.144 74.144c40.078 0 72.14-34.066 72.14-74.144 0-4.008 0-8.016-2.004-12.024l90.176-66.13v162.317h72.14v-306.598l88.172 64.126c0 4.008 0 8.016 0 10.020 0 40.078 32.062 74.144 72.14 74.144s74.144-34.066 74.144-74.144c0-40.078-34.066-72.14-74.144-72.14-14.028 0-26.050 4.008-38.074 10.020l-122.238-88.172v-202.395l88.172 64.126c0 4.008 0 6.012 0 8.016 0 42.082 32.062 74.144 72.14 74.144s74.144-32.062 74.144-74.144c0-40.078-34.066-72.14-74.144-72.14-14.028 0-26.050 4.008-38.074 12.024l-122.238-90.176v-214.418z" />
<glyph unicode="&#xe034;" glyph-name="identica" d="M0 493.080c0-252.493 208.407-456.892 466.912-456.892 74.144 0 144.282 18.036 206.403 48.094l352.688-104.204-114.223 366.716c16.032 46.090 24.046 96.188 24.046 146.286 0 252.493-208.407 456.892-466.912 456.892s-468.915-204.399-468.915-456.892zM785.533 493.080c0-38.074-8.016-76.148-20.040-110.216l58.114-164.32 6.012-16.032c0 0 0 2.004 0 2.004l20.040-54.106-74.144 18.036-160.313 50.098c-44.086-22.044-94.184-34.066-148.29-34.066-174.34-2.004-316.618 138.27-316.618 308.602s142.278 308.602 318.622 310.606c174.34 0 316.618-140.274 316.618-310.606z" />
<glyph unicode="&#xe035;" glyph-name="bebo" d="M565.103-47.976h-104.204c-226.442 0-408.798 184.36-408.798 410.802v513.001c0 56.11 46.090 102.2 102.2 102.2s102.2-46.090 102.2-102.2v-513.001c0-114.223 92.18-206.403 204.399-206.403h104.204c112.219 0 204.399 82.16 204.399 180.352 0 100.196-56.11 180.352-102.2 180.352h-206.403c-56.11 0-102.2 46.090-102.2 102.2s46.090 102.2 102.2 102.2h206.403c170.332 0 306.598-172.336 306.598-384.751s-182.356-384.751-408.798-384.751z" />
<glyph unicode="&#xe036;" glyph-name="zynga" d="M765.495 974.019c0 0 70.136 6.012 126.246-30.058 20.040 2.004 36.070-8.016 46.090-26.050 10.020-20.040 30.058-66.13 14.028-94.184-4.008-4.008-16.032 18.036-16.032 18.036s-6.012-28.054-22.044-38.074c2.004-58.114-20.040-98.192-26.050-112.219-4.008-6.012-2.004-14.028 2.004-22.044 2.004-6.012 40.078-142.278 38.074-186.364-2.004-46.090-24.046-98.192-42.082-118.23 4.008-36.070-14.028-68.133-22.044-84.164-10.020-14.028-28.054-72.14-32.062-98.192-6.012-28.054-8.016-56.11-2.004-64.126 6.012-10.020 32.062-36.070 30.058-50.098-2.004-12.024-30.058-28.054-44.086-28.054-12.024 0-40.078 8.016-46.090 26.050-8.016 18.036-8.016 50.098-4.008 68.133 6.012 18.036 38.074 152.298 18.036 230.45-46.090-22.044-124.242-20.040-124.242-20.040s-14.028-70.136-30.058-110.216c-6.012-10.020-4.008-74.144-4.008-116.227 0-40.078 14.028-104.204 14.028-104.204s20.040-16.032 16.032-34.066c-2.004-18.036-26.050-28.054-46.090-28.054s-46.090 16.032-46.090 40.078c0 24.046 4.008 82.16 2.004 122.238-2.004 42.082 0 68.133-8.016 94.184-6.012 26.050-26.050 94.184-28.054 146.286-6.012 0-12.024 6.012-12.024 6.012s-32.062-38.074-54.106-58.114c4.008-14.028 10.020-40.078 10.020-46.090s6.012-10.020 16.032-14.028c10.020-4.008 40.078-20.040 38.074-36.070 0-16.032-38.074-20.040-70.136-6.012-8.016 4.008-36.070 98.192-40.078 110.216s-6.012 18.036-2.004 30.058c6.012 10.020 18.036 44.086 16.032 64.126s-38.074 52.102-64.126 52.102c-18.036 0-48.094-30.058-68.133-46.090-26.050-20.040-56.11-50.098-64.126-56.11-8.016-4.008-68.133-114.223-78.152-144.282-6.012-14.028-14.028-76.148-66.13-74.144-22.044 2.004-44.086 28.054 22.044 72.14 16.032 38.074 38.074 78.152 40.078 86.168s18.036 106.208 48.094 198.388c28.054 94.184 70.136 138.27 78.152 144.282 6.012 6.012 10.020 8.016 4.008 12.024s-74.144 62.122-62.122 186.364c2.004 14.028 8.016 10.020 14.028-22.044 4.008-34.066 30.058-112.219 88.172-136.266 6.012-2.004 48.094 30.058 264.516 46.090 0 38.074 6.012 78.152 6.012 78.152s-14.028 12.024-16.032 34.066c-8.016-10.020-12.024-14.028-22.044-12.024-8.016 2.004-8.016 46.090-6.012 78.152 2.004 30.058 38.074 44.086 52.102 46.090 18.036 10.020 38.074 8.016 38.074 8.016s32.062 34.066 126.246 18.036z" />
<glyph unicode="&#xe037;" glyph-name="steam" d="M893.745 659.404c0-84.164-68.133-150.294-150.294-150.294-84.164 0-152.298 66.13-152.298 150.294 0 82.16 68.133 150.294 152.298 150.294 82.16 0 150.294-68.133 150.294-150.294zM0 178.466l58.114-22.044c20.040-94.184 104.204-166.324 204.399-166.324 110.216 0 198.388 84.164 210.41 190.372l268.524 196.384c156.305 0 282.552 126.246 282.552 280.548 0 156.305-126.246 282.552-282.552 282.552-154.302 0-280.548-124.242-280.548-278.544l-176.344-252.493c-6.012 2.004-14.028 2.004-22.044 2.004-38.074 0-76.148-10.020-106.208-30.058l-156.305 64.126v-266.52zM741.447 847.772c104.204 0 188.368-86.168 188.368-190.372s-84.164-188.368-188.368-188.368c-104.204 0-188.368 84.164-188.368 188.368s84.164 190.372 188.368 190.372zM262.512 354.81c86.168 0 154.302-68.133 154.302-154.302s-68.133-154.302-154.302-154.302c-58.114 0-110.216 32.062-136.266 82.16 26.050-10.020 50.098-20.040 76.148-30.058 62.122-26.050 134.262 4.008 160.313 68.133 26.050 62.122-6.012 134.262-68.133 158.309l-64.126 26.050c10.020 2.004 22.044 4.008 32.062 4.008z" />
<glyph unicode="&#xe038;" glyph-name="xbox" d="M508.994 785.651v0c0 0 0 0 0 0 204.399 148.29 332.65 74.144 332.65 74.144-90.176 76.148-206.403 122.238-332.65 122.238s-242.474-46.090-332.65-122.238c0 0 126.246 76.148 332.65-74.144zM374.732 687.459c-150.294 92.18-240.47 132.258-240.47 132.258-86.168-92.18-138.27-214.418-138.27-350.684 0-120.234 42.082-230.45 112.219-318.622 0 0-70.136 188.368 266.52 537.048zM1021.995 469.033c0 136.266-52.102 258.504-138.27 350.684 0 0-88.172-40.078-240.47-132.258 336.657-348.681 266.52-537.048 266.52-537.048 70.136 88.172 112.219 198.388 112.219 318.622zM506.99 575.24c-284.556-210.41-368.72-458.896-368.72-458.896 94.184-98.192 224.438-158.309 370.724-158.309s278.544 60.118 370.724 158.309c0 0-54.106 224.438-372.728 458.896z" />
<glyph unicode="&#xe039;" glyph-name="windows" d="M-2.004 94.302l422.826-56.11v396.774h-424.829zM-4.008 485.064h424.829v412.806l-422.826-62.122zM460.9 32.18l565.103-76.148v478.935h-565.103zM460.9 903.881v-418.818h565.103v494.966z" />
<glyph unicode="&#xe03a;" glyph-name="qq" d="M965.885 384.868c-30.058 72.14-72.14 124.242-102.2 136.266 0 4.008 0 8.016 0 14.028 0 26.050-8.016 52.102-20.040 72.14 0 2.004 0 4.008 0 6.012 0 12.024-4.008 24.046-8.016 34.066-8.016 184.36-128.25 330.646-322.63 330.646s-314.614-146.286-322.63-330.646c-6.012-10.020-8.016-22.044-8.016-34.066 0-2.004 0-4.008 0-6.012-12.024-20.040-20.040-46.090-20.040-72.14 0-6.012 0-10.020 0-14.028-30.058-12.024-72.14-64.126-102.2-136.266-38.074-90.176-44.086-176.344-14.028-192.376 22.044-10.020 56.11 14.028 86.168 62.122 12.024-52.102 44.086-96.188 86.168-134.262-44.086-16.032-74.144-44.086-74.144-76.148 0-50.098 80.156-92.18 180.352-92.18 90.176 0 164.32 34.066 178.348 78.152 4.008 0 18.036 0 20.040 0 14.028-44.086 90.176-78.152 178.348-78.152 100.196 0 182.356 42.082 182.356 92.18 0 32.062-30.058 60.118-76.148 76.148 44.086 38.074 74.144 82.16 86.168 134.262 32.062-48.094 64.126-72.14 86.168-62.122 30.058 16.032 24.046 102.2-14.028 192.376zM420.822 647.381c-54.106 6.012-66.13 106.208-40.078 154.302 10.020 16.032 26.050 30.058 46.090 30.058 36.070 0 58.114-46.090 58.114-90.176s-20.040-98.192-64.126-94.184zM613.197 647.381c-6.012-2.004-18.036-4.008-26.050 0-52.102 14.028-62.122 110.216-34.066 154.302 8.016 14.028 22.044 28.054 40.078 30.058 4.008 2.004 14.028 2.004 20.040 0 60.118-24.046 58.114-162.317 0-184.36zM599.17 765.612c-16.032 8.016-30.058-4.008-34.066-16.032-2.004-10.020-6.012-26.050 8.016-28.054 6.012 6.012 4.008 28.054 16.032 26.050s4.008-28.054 22.044-24.046c6.012 16.032 0 38.074-12.024 42.082zM452.884 775.631c-28.054-4.008-28.054-72.14 2.004-74.144s32.062 78.152-2.004 74.144z" />
<glyph unicode="&#xe03b;" glyph-name="douban" d="M0 961.995h1026.003v-112.219h-1026.003zM839.639 310.724h102.2v430.841h-855.671v-430.841h90.176l76.148-244.478h-252.493v-98.192h1026.003v98.192h-258.504zM258.504 629.346h515.005v-204.399h-515.005zM623.217 66.246h-226.442l-76.148 244.478h374.732z" />
<glyph unicode="&#xe03c;" glyph-name="meetup" d="M775.514 951.975c-8.016 0-16.032-8.016-24.046-8.016-24.046 0-44.086-20.040-64.126-16.032-20.040 2.004-38.074-32.062-62.122-32.062h-6.012c-6.012 0-12.024 38.074-14.028 40.078-106.208-144.282-142.278-330.646-190.372-527.029-26.050 48.094-50.098 98.192-74.144 148.29-44.086 84.164-88.172 174.34-136.266 246.481-14.028 0-28.054 2.004-42.082 2.004-56.11 0-108.212-10.020-156.305-24.046l-2.004-132.258c-6.012-226.442-12.024-420.822 46.090-605.181 10.020-2.004 22.044-4.008 32.062-4.008 68.133 0 128.25 34.066 154.302 48.094 6.012 58.114-2.004 102.2-10.020 150.294-4.008 24.046-8.016 50.098 6.012 82.16 38.074-52.102 74.144-108.212 108.212-164.32 22.044-36.070 44.086-72.14 62.122-102.2 10.020-2.004 22.044-2.004 32.062-2.004 26.050 0 50.098 4.008 74.144 6.012 24.046 4.008 48.094 8.016 76.148 8.016l16.032-6.012c30.058 68.133 32.062 172.336 34.066 270.528 2.004 92.18 4.008 186.364 44.086 256.5 44.086-204.399 104.204-402.786 184.36-605.181 26.050 4.008 58.114 14.028 86.168 22.044 22.044 6.012 40.078 14.028 56.11 14.028 8.016 0 14.028-4.008 20.040-8.016-48.094 130.254-78.152 276.54-106.208 420.822-38.074 186.364-78.152 374.732-144.282 521.017z" />
<glyph unicode="&#xe03d;" glyph-name="playstation" d="M1023.999 292.688c-10.020 48.094-86.168 74.144-206.403 84.164-84.164 6.012-168.328-14.028-250.489-42.082l-14.028-4.008v362.708c0 30.058 64.126 28.054 64.126-6.012v-282.552c130.254-38.074 196.384 20.040 198.388 164.32 0 122.238-82.16 194.38-216.422 230.45l-212.414 54.106v-428.837l-64.126-22.044 64.126-20.040v-108.212l-152.298-52.102c-52.102-18.036-94.184 24.046-48.094 40.078l38.074 14.028-142.278 44.086c-44.086-14.028-84.164-46.090-82.16-90.176s106.208-56.11 184.36-68.133c74.144-12.024 142.278-6.012 202.395 16.032v46.090-96.188l166.324-54.106v4.008l2.004-4.008 144.282 52.102 240.47 84.164-156.305 48.094-230.45-78.152v54.106l146.286 50.098 86.168 30.058c90.176 16.032 126.246-14.028 40.078-42.082l-42.082-14.028 156.305-48.094h2.004c62.122 22.044 90.176 54.106 84.164 82.16zM82.16 320.744l142.278-44.086 162.317 58.114v48.094l-64.126 20.040-236.462-80.156c-2.004 0-2.004-2.004-4.008-2.004z" />
<glyph unicode="&#xe03e;" glyph-name="android" d="M889.737 657.4c-34.066 0-62.122-30.058-62.122-64.126v-248.485c0-34.066 28.054-62.122 62.122-62.122s62.122 28.054 62.122 62.122v248.485c0 34.066-28.054 64.126-62.122 64.126zM136.266 657.4c-34.066 0-62.122-30.058-62.122-64.126v-248.485c0-34.066 28.054-62.122 62.122-62.122s62.122 28.054 62.122 62.122v248.485c0 34.066-28.054 64.126-62.122 64.126zM236.462 655.397v-452.884c0-28.054 22.044-50.098 48.094-50.098h56.11v-136.266c0-36.070 28.054-64.126 62.122-64.126s62.122 28.054 62.122 64.126v136.266h98.192v-136.266c0-36.070 28.054-64.126 62.122-64.126s62.122 28.054 62.122 64.126v136.266h56.11c26.050 0 48.094 22.044 48.094 50.098v452.884zM645.26 889.854l50.098 74.144c4.008 4.008 2.004 10.020-2.004 12.024-4.008 4.008-8.016 2.004-12.024-2.004l-52.102-78.152c-36.070 14.028-74.144 22.044-116.227 22.044s-80.156-8.016-116.227-22.044l-52.102 78.152c-4.008 4.008-8.016 6.012-12.024 2.004-4.008-2.004-6.012-8.016-2.004-12.024l50.098-74.144c-80.156-38.074-138.27-110.216-146.286-194.38h557.087c-8.016 84.164-66.13 156.305-146.286 194.38zM396.774 771.623c-18.036 0-32.062 14.028-32.062 30.058 0 18.036 14.028 32.062 32.062 32.062 16.032 0 30.058-14.028 30.058-32.062 0-16.032-14.028-30.058-30.058-30.058zM633.236 771.623c-16.032 0-30.058 14.028-30.058 30.058 0 18.036 14.028 32.062 30.058 32.062 18.036 0 32.062-14.028 32.062-32.062 0-16.032-14.028-30.058-32.062-30.058z" />
<glyph unicode="&#xe03f;" glyph-name="snapchat" d="M518.677 42.693c-2.318 0-4.594 0.067-6.874 0.173h-0.005c-1.451-0.112-2.97-0.173-4.487-0.173-53.283 0-87.483 24.175-120.554 47.556-22.835 16.136-44.382 31.367-69.773 35.597-12.389 2.050-24.721 3.093-36.639 3.093-21.469 0-38.407-3.313-50.772-5.732-7.513-1.47-13.997-2.735-18.922-2.735-5.147 0-10.724 1.113-13.148 9.394-2.106 7.176-3.631 14.124-5.096 20.846-3.778 17.301-6.458 27.94-13.708 29.053-84.51 13.054-108.697 30.852-114.090 43.482-0.764 1.807-1.198 3.617-1.301 5.407-0.273 4.852 3.163 9.136 7.958 9.92 129.912 21.393 188.168 154.169 190.585 159.808 0.065 0.155 0.137 0.305 0.208 0.461 7.953 16.113 9.508 30.099 4.645 41.565-8.915 21.011-37.99 30.246-57.239 36.35-4.71 1.489-9.174 2.9-12.695 4.289-38.407 15.184-41.603 30.769-40.093 38.713 2.574 13.535 20.662 22.967 35.289 22.967 4.012 0 7.542-0.712 10.512-2.097 17.278-8.093 32.847-12.196 46.282-12.196 18.564 0 26.667 7.803 27.658 8.825-0.471 8.793-1.057 17.977-1.655 27.451-3.87 61.419-8.662 137.737 10.769 181.299 58.238 130.581 181.736 140.724 218.2 140.724 0.934 0 15.986 0.159 15.986 0.159l2.159 0.009c36.549 0 160.317-10.164 218.587-140.815 19.437-43.587 14.628-119.968 10.751-181.341l-0.161-2.668c-0.538-8.547-1.055-16.852-1.489-24.804 0.929-0.948 8.381-8.122 25.212-8.769h0.018c12.789 0.489 27.489 4.567 43.62 12.124 4.73 2.206 9.979 2.674 13.553 2.674 5.458 0 10.995-1.057 15.589-2.975l0.278-0.114c13.049-4.625 21.596-13.77 21.778-23.326 0.17-8.999-6.701-22.528-40.398-35.84-3.492-1.371-7.958-2.791-12.684-4.289-19.267-6.113-48.333-15.34-57.243-36.344-4.871-11.459-3.31-25.438 4.639-41.56 0.070-0.155 0.15-0.305 0.211-0.471 2.417-5.634 60.623-138.372 190.59-159.789 4.8-0.791 8.225-5.071 7.962-9.929-0.108-1.821-0.553-3.655-1.328-5.436-5.36-12.539-29.53-30.316-114.066-43.377-6.907-1.060-9.582-10.061-13.703-28.93-1.498-6.869-3.017-13.614-5.105-20.709-1.801-6.157-5.637-9.038-12.091-9.038h-1.051c-4.478 0-10.848 0.802-18.916 2.385-14.312 2.8-30.359 5.378-50.775 5.378-11.923 0-24.259-1.042-36.657-3.093-25.362-4.229-46.897-19.431-69.688-35.544-33.134-23.435-67.331-47.608-120.63-47.608z" />
<glyph unicode="&#xe040;" glyph-name="twitter" d="M921.799 673.432c0-8.016 0-18.036 0-26.050 0-278.544-212.414-599.17-599.17-599.17-118.23 0-230.45 34.066-322.63 94.184 16.032-2.004 34.066-2.004 50.098-2.004 98.192 0 190.372 32.062 262.512 90.176-92.18 0-170.332 62.122-198.388 146.286 14.028-4.008 26.050-4.008 40.078-4.008 20.040 0 38.074 2.004 56.11 6.012-96.188 20.040-168.328 106.208-168.328 206.403 0 2.004 0 2.004 0 4.008 28.054-16.032 60.118-26.050 94.184-26.050-56.11 36.070-94.184 102.2-94.184 174.34 0 38.074 12.024 74.144 30.058 106.208 102.2-128.25 258.504-212.414 432.845-220.43-4.008 16.032-6.012 32.062-6.012 48.094 0 116.227 94.184 210.41 210.41 210.41 62.122 0 116.227-26.050 154.302-66.13 48.094 10.020 94.184 26.050 134.262 50.098-16.032-48.094-50.098-90.176-92.18-116.227 42.082 6.012 82.16 16.032 120.234 34.066-28.054-42.082-64.126-80.156-104.204-110.216z" />
<glyph unicode="&#xe041;" glyph-name="facebook" d="M593.158-47.976v468.915h156.305l24.046 182.356h-180.352v116.227c0 52.102 14.028 88.172 90.176 88.172h96.188v162.317c-16.032 4.008-74.144 8.016-140.274 8.016-140.274 0-234.458-84.164-234.458-240.47v-134.262h-158.309v-182.356h158.309v-468.915z" />
<glyph unicode="&#xe042;" glyph-name="googleplus" d="M328.642 527.146c0-44.086 0-86.168 0-128.25 60.118 0 120.234 0 180.352 0-8.016-42.082-32.062-78.152-66.13-102.2-22.044-14.028-48.094-24.046-72.14-28.054-26.050-4.008-54.106-6.012-80.156 0-26.050 4.008-50.098 16.032-72.14 32.062-36.070 24.046-62.122 60.118-76.148 100.196-14.028 42.082-14.028 86.168 0 128.25 10.020 28.054 26.050 56.11 48.094 78.152 26.050 26.050 62.122 46.090 98.192 54.106 32.062 6.012 66.13 6.012 96.188-4.008 28.054-8.016 52.102-22.044 72.14-42.082 20.040 20.040 40.078 40.078 60.118 60.118 10.020 12.024 22.044 22.044 32.062 32.062-30.058 30.058-66.13 52.102-106.208 66.13-70.136 26.050-150.294 26.050-222.434 2.004-80.156-28.054-148.29-88.172-186.364-162.317-12.024-26.050-22.044-54.106-28.054-84.164-14.028-70.136-4.008-146.286 28.054-212.414 22.044-42.082 52.102-80.156 90.176-108.212 36.070-28.054 76.148-50.098 120.234-62.122 54.106-14.028 112.219-14.028 168.328 0 50.098 10.020 96.188 34.066 134.262 68.133 40.078 38.074 68.133 86.168 82.16 138.27 18.036 56.11 20.040 116.227 10.020 174.34-104.204 0-206.403 0-310.606 0zM1026.003 519.13h-112.219v112.219h-82.16v-112.219h-112.219v-82.16h112.219v-112.219h82.16v112.219h112.219z" />
<glyph unicode="&#xe043;" glyph-name="pinterest" d="M340.665 585.26c0 44.086 10.020 80.156 34.066 110.216 22.044 30.058 50.098 46.090 82.16 46.090 26.050 0 46.090-8.016 60.118-26.050s22.044-40.078 22.044-66.13c0-16.032-4.008-36.070-10.020-58.114-6.012-24.046-12.024-52.102-22.044-82.16-10.020-32.062-18.036-56.11-22.044-74.144-8.016-32.062-2.004-60.118 18.036-84.164 20.040-22.044 46.090-34.066 78.152-34.066 56.11 0 102.2 32.062 138.27 94.184 36.070 64.126 54.106 140.274 54.106 230.45 0 68.133-22.044 124.242-66.13 168.328-44.086 42.082-106.208 64.126-186.364 64.126-90.176 0-162.317-28.054-216.422-86.168-56.11-56.11-84.164-124.242-84.164-204.399 0-48.094 14.028-88.172 40.078-120.234 10.020-10.020 12.024-22.044 10.020-34.066-4.008-10.020-8.016-26.050-12.024-48.094-2.004-8.016-6.012-14.028-12.024-16.032s-12.024-2.004-18.036 0c-42.082 18.036-72.14 46.090-94.184 88.172s-32.062 90.176-32.062 144.282c0 36.070 6.012 70.136 18.036 106.208s28.054 70.136 52.102 102.2c24.046 34.066 54.106 62.122 86.168 88.172 34.066 26.050 74.144 46.090 124.242 62.122 48.094 14.028 100.196 22.044 154.302 22.044 58.114 0 110.216-10.020 158.309-30.058 48.094-18.036 90.176-44.086 122.238-76.148 34.066-34.066 58.114-70.136 78.152-112.219 18.036-42.082 28.054-86.168 28.054-130.254 0-120.234-30.058-220.43-92.18-298.583-62.122-80.156-140.274-118.23-236.462-118.23-32.062 0-62.122 6.012-90.176 22.044-28.054 14.028-48.094 32.062-60.118 54.106-22.044-94.184-36.070-150.294-42.082-168.328-12.024-46.090-40.078-102.2-86.168-168.328h-42.082c-8.016 82.16-6.012 150.294 6.012 204.399l78.152 330.646c-12.024 26.050-18.036 58.114-18.036 98.192z" />
<glyph unicode="&#xe044;" glyph-name="foursquare" d="M789.541 978.027c0 0-470.919 0-547.068 0-74.144 0-96.188-56.11-96.188-92.18s0-869.697 0-869.697c0-40.078 20.040-56.11 32.062-60.118 14.028-6.012 46.090-10.020 66.13 14.028 0 0 258.504 300.587 262.512 304.594 8.016 6.012 8.016 6.012 14.028 6.012 14.028 0 114.223 0 168.328 0 70.136 0 80.156 50.098 88.172 80.156 6.012 24.046 74.144 374.732 98.192 486.951 16.032 84.164-4.008 130.254-86.168 130.254zM777.518 360.822c6.012 24.046 74.144 374.732 98.192 486.951zM757.479 829.737l-22.044-120.234c-4.008-12.024-20.040-26.050-34.066-26.050-16.032 0-214.418 0-214.418 0-24.046 0-40.078-16.032-40.078-40.078v-26.050c0-24.046 16.032-40.078 40.078-40.078 0 0 164.32 0 182.356 0 16.032 0 32.062-20.040 30.058-38.074-4.008-18.036-22.044-108.212-24.046-118.23-2.004-8.016-12.024-26.050-34.066-26.050-16.032 0-146.286 0-146.286 0-28.054 0-36.070-4.008-54.106-26.050s-178.348-216.422-178.348-216.422c-2.004-2.004-4.008-2.004-4.008 0v679.326c0 16.032 14.028 34.066 34.066 34.066 0 0 420.822 0 438.857 0 16.032 0 30.058-16.032 26.050-36.070z" />
<glyph unicode="&#xe045;" glyph-name="yahoo" d="M995.945 653.393c-18.036 0-92.18-18.036-118.23-22.044-26.050-8.016-270.528-196.384-286.56-242.474-4.008-16.032-6.012-42.082-6.012-64.126l-2.004-38.074c0-26.050 8.016-70.136 12.024-92.18 16.032-4.008 132.258-2.004 154.302-4.008l-4.008-48.094c-20.040 2.004-168.328 0-252.493 0-42.082 0-180.352-4.008-222.434-2.004l8.016 44.086c24.046 2.004 118.23-4.008 140.274 18.036 10.020 12.024 8.016 24.046 8.016 88.172v30.058c0 14.028 0 42.082-4.008 66.13-10.020 26.050-224.438 294.575-280.548 338.661-16.032 4.008-116.227 16.032-140.274 20.040l-2.004 42.082c12.024 6.012 124.242-2.004 232.454 2.004 72.14 2.004 234.458 0 254.497-2.004l-4.008-36.070c-22.044-6.012-126.246-8.016-152.298-16.032 70.136-102.2 180.352-236.462 216.422-286.56 18.036 28.054 190.372 146.286 196.384 186.364-26.050 6.012-116.227 20.040-130.254 20.040l-8.016 46.090c24.046 4.008 152.298 0 216.422 0 54.106 0 170.332 0 204.399-4.008z" />
<glyph unicode="&#xe046;" glyph-name="skype" d="M989.933 356.814c8.016 32.062 10.020 68.133 10.020 102.2 0 266.52-214.418 482.943-480.939 482.943-28.054 0-56.11-2.004-82.16-6.012-44.086 26.050-94.184 42.082-150.294 42.082-154.302 0-278.544-126.246-278.544-280.548 0-50.098 14.028-100.196 38.074-140.274-6.012-32.062-10.020-64.126-10.020-98.192 0-266.52 216.422-480.939 482.943-480.939 30.058 0 58.114 2.004 88.172 8.016 38.074-22.044 84.164-34.066 132.258-34.066 154.302 0 278.544 126.246 278.544 280.548 0 44.086-10.020 86.168-28.054 124.242zM761.487 230.568c-22.044-32.062-54.106-56.11-98.192-74.144-42.082-18.036-92.18-26.050-150.294-26.050-68.133 0-126.246 12.024-172.336 36.070-32.062 16.032-60.118 40.078-80.156 70.136s-30.058 58.114-30.058 86.168c0 18.036 6.012 34.066 20.040 46.090s30.058 18.036 50.098 18.036c16.032 0 30.058-4.008 42.082-14.028s22.044-24.046 28.054-42.082c10.020-18.036 18.036-36.070 28.054-48.094s24.046-24.046 40.078-32.062c18.036-8.016 42.082-12.024 70.136-12.024 40.078 0 74.144 8.016 98.192 26.050 24.046 16.032 36.070 36.070 36.070 60.118 0 18.036-6.012 34.066-20.040 46.090-12.024 12.024-30.058 20.040-50.098 28.054-22.044 6.012-52.102 14.028-88.172 22.044-50.098 10.020-94.184 22.044-128.25 38.074-34.066 14.028-62.122 34.066-82.16 60.118s-32.062 58.114-32.062 96.188c0 36.070 12.024 70.136 34.066 98.192s52.102 50.098 94.184 64.126c40.078 16.032 86.168 22.044 140.274 22.044 44.086 0 82.16-4.008 112.219-14.028 32.062-10.020 60.118-24.046 80.156-40.078 22.044-16.032 38.074-34.066 48.094-52.102s14.028-38.074 14.028-56.11c0-16.032-6.012-32.062-20.040-46.090-12.024-14.028-30.058-20.040-50.098-20.040-16.032 0-30.058 4.008-40.078 12.024s-18.036 22.044-30.058 38.074c-12.024 24.046-26.050 42.082-42.082 54.106s-44.086 18.036-80.156 18.036c-36.070 0-64.126-6.012-84.164-20.040-20.040-12.024-30.058-28.054-30.058-46.090 0-10.020 2.004-20.040 10.020-28.054 6.012-8.016 16.032-16.032 28.054-22.044s26.050-12.024 38.074-14.028c14.028-4.008 36.070-10.020 68.133-18.036 38.074-8.016 74.144-16.032 106.208-26.050 32.062-12.024 60.118-24.046 82.16-38.074 24.046-16.032 42.082-34.066 54.106-58.114 14.028-22.044 20.040-52.102 20.040-84.164 0-40.078-12.024-76.148-34.066-108.212z" />
<glyph unicode="&#xe047;" glyph-name="yelp" d="M210.41 875.827c10.020 16.032 30.058 24.046 30.058 24.046l202.395 74.144c8.016 2.004 18.036 12.024 48.094-8.016 18.036-10.020 22.044-54.106 22.044-54.106l2.004-346.677c0 0-4.008-40.078-32.062-48.094-26.050-6.012-48.094 16.032-48.094 16.032l-208.407 284.556c0 0-30.058 36.070-16.032 58.114zM104.204 284.673c-8.016 14.028-6.012 44.086-6.012 44.086l14.028 174.34c0 10.020 12.024 24.046 24.046 30.058 14.028 10.020 48.094-4.008 48.094-4.008l216.422-110.216c0 0 32.062-16.032 32.062-42.082 0-36.070-18.036-36.070-28.054-42.082l-254.497-56.11c0 0-36.070-14.028-46.090 6.012zM494.966-45.972c-16.032-4.008-36.070 0-36.070 0l-170.332 54.106c-12.024 6.012-22.044 14.028-26.050 30.058-6.012 18.036 16.032 46.090 16.032 46.090l170.332 186.364c0 0 26.050 24.046 46.090 12.024 20.040-10.020 22.044-34.066 22.044-34.066l-4.008-252.493c0 0 4.008-36.070-18.036-42.082zM599.17 473.040l136.266 216.422c0 0 14.028 28.054 38.074 26.050 20.040 0 30.058-18.036 30.058-18.036l116.227-136.266c0 0 10.020-22.044 6.012-40.078s-38.074-32.062-38.074-32.062l-242.474-70.136c0 0-36.070-8.016-48.094 14.028-10.020 20.040 2.004 40.078 2.004 40.078zM917.791 190.489l-102.2-148.29c0 0-20.040-14.028-38.074-14.028s-40.078 28.054-40.078 28.054l-130.254 218.426c0 0-14.028 32.062 2.004 48.094s40.078 10.020 40.078 10.020l244.478-78.152c0 0 34.066-6.012 34.066-30.058 0-16.032-10.020-34.066-10.020-34.066z" />
<glyph unicode="&#xe048;" glyph-name="feedburner" d="M643.256 663.412c34.066-180.352-76.148-290.567-212.414-252.493 200.392 328.642-92.18 330.646-2.004 567.107-138.27-98.192-274.536-370.724-274.536-569.111 0-278.544 146.286-454.888 342.669-456.892 190.372-2.004 374.732 180.352 374.732 358.7 0 204.399-110.216 284.556-228.446 352.688zM496.97 22.16c-194.38-4.008-354.692 204.399-174.34 498.974-38.074-170.332 64.126-298.583 162.317-298.583 110.216-2.004 174.34 102.2 206.403 236.462 176.344-134.262 96.188-430.841-194.38-436.853z" />
<glyph unicode="&#xe049;" glyph-name="linkedin" d="M767.499 453.002c-14.028 16.032-38.074 24.046-72.14 24.046-44.086 0-74.144-14.028-92.18-38.074-18.036-26.050-26.050-62.122-26.050-108.212v-350.684c0-6.012-2.004-12.024-8.016-18.036-4.008-4.008-12.024-8.016-18.036-8.016h-184.36c-6.012 0-12.024 4.008-18.036 8.016-4.008 6.012-8.016 12.024-8.016 18.036v647.263c0 6.012 4.008 12.024 8.016 18.036 6.012 4.008 12.024 8.016 18.036 8.016h178.348c6.012 0 12.024-2.004 16.032-4.008s6.012-8.016 8.016-14.028c0-6.012 2.004-12.024 2.004-14.028s0-8.016 0-16.032c46.090 44.086 108.212 64.126 182.356 64.126 86.168 0 152.298-20.040 200.392-62.122 48.094-44.086 72.14-106.208 72.14-190.372v-436.853c0-6.012-2.004-12.024-8.016-18.036-4.008-4.008-12.024-8.016-18.036-8.016h-188.368c-6.012 0-12.024 4.008-18.036 8.016-4.008 6.012-8.016 12.024-8.016 18.036v394.771c0 34.066-6.012 60.118-18.036 78.152zM212.414 763.608c-24.046-24.046-54.106-36.070-88.172-36.070s-64.126 12.024-88.172 36.070c-24.046 24.046-36.070 52.102-36.070 88.172 0 34.066 12.024 62.122 36.070 86.168s54.106 38.074 88.172 38.074c34.066 0 64.126-14.028 88.172-38.074s36.070-52.102 36.070-86.168c0-36.070-12.024-64.126-36.070-88.172zM242.474 627.342v-647.263c0-6.012-4.008-12.024-8.016-18.036-6.012-4.008-12.024-8.016-18.036-8.016h-184.36c-6.012 0-12.024 4.008-18.036 8.016-4.008 6.012-8.016 12.024-8.016 18.036v647.263c0 6.012 4.008 12.024 8.016 18.036 6.012 4.008 12.024 8.016 18.036 8.016h184.36c6.012 0 12.024-4.008 18.036-8.016 4.008-6.012 8.016-12.024 8.016-18.036z" />
<glyph unicode="&#xe04a;" glyph-name="viadeo" d="M198.388 176.462c24.046-44.086 58.114-78.152 98.192-102.2 28.054-16.032 58.114-26.050 88.172-32.062 266.52 104.204 234.458 607.185 232.454 633.236-10.020 30.058-56.11 158.309-142.278 302.59 0 0 120.234-80.156 142.278-300.587 0 0 0-2.004 0-2.004 2.004-4.008 2.004-6.012 2.004-6.012 156.305-416.814-182.356-631.232-184.36-631.232 50.098 0 94.184 12.024 134.262 36.070 42.082 24.046 74.144 58.114 100.196 102.2 24.046 44.086 36.070 90.176 36.070 142.278 0 40.078-8.016 78.152-22.044 114.223 24.046 4.008 54.106 14.028 84.164 34.066 18.036-46.090 28.054-94.184 28.054-146.286 0-98.192-34.066-184.36-102.2-258.504-66.13-74.144-154.302-110.216-258.504-110.216-108.212 0-194.38 36.070-262.512 110.216-66.13 74.144-100.196 160.313-100.196 258.504 0 96.188 32.062 182.356 96.188 252.493 70.136 80.156 158.309 118.23 266.52 118.23 44.086 0 86.168-6.012 124.242-20.040-12.024-24.046-24.046-54.106-26.050-86.168-32.062 12.024-64.126 18.036-100.196 18.036-74.144 0-136.266-28.054-190.372-82.16-54.106-56.11-80.156-124.242-80.156-202.395 0-52.102 12.024-98.192 36.070-142.278zM675.318 589.268c0 0 206.403 112.219 214.418 208.407 0 0-64.126-142.278-238.466-182.356 0 0-62.122 98.192 18.036 178.348 0 0 28.054 32.062 108.212 52.102 0 0 80.156 16.032 124.242 108.212 0 0 90.176-124.242 34.066-290.567 0 0-28.054-74.144-84.164-108.212-44.086-26.050-108.212-34.066-176.344 34.066zM434.849 38.192c0 0-2.004 0-2.004 0s0 0 0 0c2.004 0 2.004 0 2.004 0z" />
<glyph unicode="&#xe04b;" glyph-name="xing" d="M246.481 258.622h-148.29c-8.016 0-14.028 4.008-18.036 10.020s-4.008 16.032 0 24.046l156.305 276.54c0 0 0 0 0 2.004l-100.196 172.336c-4.008 8.016-4.008 16.032 0 22.044s10.020 10.020 20.040 10.020h148.29c22.044 0 34.066-14.028 40.078-28.054 0 0 102.2-176.344 102.2-176.344-6.012-12.024-160.313-282.552-160.313-282.552-8.016-14.028-18.036-30.058-40.078-30.058zM945.847 945.964l-326.638-579.131c0 0 0-2.004 0-2.004l208.407-380.743c4.008-8.016 4.008-16.032 0-22.044s-10.020-10.020-20.040-10.020h-148.29c-22.044 0-32.062 16.032-40.078 28.054 0 0-210.41 384.751-210.41 386.755 10.020 18.036 328.642 583.138 328.642 583.138 8.016 14.028 18.036 28.054 40.078 28.054h150.294c8.016 0 16.032-4.008 18.036-10.020 4.008-6.012 4.008-14.028 0-22.044z" />
<glyph unicode="&#xe04c;" glyph-name="myspace" d="M847.655 418.935c98.192 0 178.348-78.152 178.348-178.348 0-32.062 0-90.176 0-90.176h-358.7c0 0 0 58.114 0 90.176 0 100.196 80.156 178.348 180.352 178.348zM683.334 615.318c0 90.176 72.14 164.32 164.32 164.32 90.176 0 164.32-74.144 164.32-164.32 0-92.18-74.144-164.32-164.32-164.32-92.18 0-164.32 72.14-164.32 164.32zM476.931 390.88c88.172 0 160.313-72.14 160.313-160.313 0-28.054 0-80.156 0-80.156h-318.622c0 0 0 52.102 0 80.156 0 88.172 70.136 160.313 158.309 160.313zM330.646 569.228c0 82.16 66.13 148.29 146.286 148.29 82.16 0 148.29-66.13 148.29-148.29 0-80.156-66.13-146.286-148.29-146.286s-146.286 66.13-146.286 146.286zM142.278 366.834c80.156 0 144.282-64.126 144.282-144.282 0-26.050 0-72.14 0-72.14h-286.56c0 0 0 46.090 0 72.14 0 80.156 64.126 144.282 142.278 144.282zM10.020 527.146c0 74.144 60.118 132.258 132.258 132.258 74.144 0 132.258-58.114 132.258-132.258 0-72.14-58.114-132.258-132.258-132.258-72.14 0-132.258 60.118-132.258 132.258z" />
<glyph unicode="&#xe04d;" glyph-name="soundcloud" d="M20.040 300.704h-20.040v124.242h20.040zM72.14 260.626h-20.040v194.38h20.040zM112.219 248.602h-20.040v226.442h20.040zM154.302 238.582h-20.040v226.442h20.040zM204.399 238.582h-20.040v298.583h20.040zM246.481 238.582h-20.040v338.661h20.040zM296.579 238.582h-20.040v360.704h20.040zM338.661 238.582h-20.040v370.724h20.040zM390.763 238.582h-22.044v360.704h22.044zM430.841 238.582h-20.040v348.681h20.040zM472.923 238.582h-22.044v390.763h22.044zM523.021 238.582h-20.040v420.822h20.040zM899.757 242.59c-2.004 0-350.684 0-350.684 0-8.016 0-16.032 6.012-16.032 14.028v400.782c0 8.016 4.008 12.024 14.028 16.032 24.046 10.020 52.102 14.028 80.156 14.028 116.227 0 212.414-88.172 222.434-202.395 16.032 6.012 32.062 10.020 50.098 10.020 70.136 0 126.246-56.11 126.246-126.246s-56.11-126.246-126.246-126.246z" />
<glyph unicode="&#xe04e;" glyph-name="spotify1" d="M827.615 146.402c-12.024-20.040-40.078-28.054-60.118-14.028-170.332 102.2-382.747 126.246-633.236 68.133-24.046-4.008-48.094 10.020-54.106 34.066s10.020 48.094 34.066 54.106c274.536 62.122 508.994 36.070 699.365-80.156 22.044-12.024 28.054-40.078 14.028-62.122zM915.787 342.786c-16.032-26.050-50.098-34.066-76.148-18.036-194.38 118.23-488.954 152.298-719.405 84.164-28.054-10.020-60.118 8.016-70.136 36.070-8.016 30.058 8.016 62.122 38.074 70.136 262.512 80.156 587.146 42.082 809.581-94.184 26.050-18.036 36.070-52.102 18.036-78.152zM1015.983 571.232c-18.036-32.062-60.118-42.082-92.18-24.046-232.454 138.27-615.201 150.294-837.635 84.164-34.066-12.024-72.14 8.016-84.164 44.086-10.020 36.070 10.020 74.144 46.090 84.164 254.497 78.152 677.322 62.122 945.847-96.188 32.062-20.040 42.082-60.118 22.044-92.18z" />
<glyph unicode="&#xe04f;" glyph-name="grooveshark" d="M513.001 978.027c-282.552 0-513.001-230.45-513.001-513.001s230.45-513.001 513.001-513.001c282.552 0 513.001 230.45 513.001 513.001s-230.45 513.001-513.001 513.001zM813.589 362.826c-38.074 16.032-70.136 48.094-94.184 82.16-26.050 38.074-54.106 76.148-84.164 112.219-30.058 32.062-60.118 64.126-94.184 94.184-32.062 28.054-68.133 56.11-108.212 76.148-28.054 12.024-54.106 22.044-82.16 30.058-4.008 0-12.024 4.008-16.032 0 0-2.004 0-6.012 0-10.020 2.004-6.012 2.004-10.020 2.004-16.032 10.020-72.14 12.024-146.286-10.020-214.418-12.024-36.070-32.062-70.136-62.122-96.188-22.044-22.044-56.11-44.086-90.176-42.082-6.012 0-12.024 0-18.036 2.004-36.070 12.024-38.074 52.102-38.074 84.164-2.004 34.066 2.004 68.133 12.024 102.2 2.004 10.020 6.012 20.040 8.016 30.058 40.078 114.223 130.254 206.403 244.478 246.481 44.086 16.032 88.172 24.046 134.262 24.046 134.262 0 260.508-68.133 334.653-180.352 18.036-28.054 32.062-58.114 44.086-88.172v0c2.004-12.024 6.012-22.044 8.016-32.062 10.020-34.066 14.028-68.133 14.028-102.2-2.004-64.126-22.044-136.266-104.204-102.2z" />
<glyph unicode="&#xe050;" glyph-name="lastfm" d="M781.525 180.47c-202.395 0-274.536 92.18-310.606 204.399l-38.074 118.23c-28.054 86.168-62.122 152.298-164.32 152.298-72.14 0-144.282-52.102-144.282-196.384 0-112.219 56.11-182.356 138.27-182.356 92.18 0 152.298 68.133 152.298 68.133l38.074-102.2c0 0-64.126-62.122-196.384-62.122-164.32 0-256.5 96.188-256.5 274.536 0 186.364 92.18 294.575 264.516 294.575 156.305 0 234.458-56.11 284.556-208.407l38.074-118.23c28.054-86.168 78.152-148.29 196.384-148.29 80.156 0 122.238 18.036 122.238 62.122 0 34.066-20.040 58.114-80.156 72.14l-80.156 20.040c-96.188 22.044-136.266 72.14-136.266 152.298 0 128.25 104.204 168.328 210.41 168.328 120.234 0 192.376-42.082 202.395-148.29l-118.23-14.028c-4.008 50.098-36.070 70.136-92.18 70.136-52.102 0-82.16-22.044-82.16-62.122 0-36.070 14.028-56.11 66.13-68.133l76.148-16.032c100.196-24.046 154.302-74.144 154.302-168.328 0-118.23-98.192-162.317-244.478-162.317z" />
<glyph unicode="&#xe051;" glyph-name="youtube" d="M1015.983 669.424c0 0-10.020 72.14-40.078 102.2-40.078 42.082-84.164 42.082-104.204 44.086-142.278 10.020-358.7 10.020-358.7 10.020v0c0 0-216.422 0-358.7-10.020-20.040-2.004-64.126-2.004-104.204-44.086-30.058-30.058-40.078-102.2-40.078-102.2s-10.020-82.16-10.020-164.32v-78.152c0-84.164 10.020-166.324 10.020-166.324s10.020-70.136 40.078-102.2c40.078-40.078 92.18-40.078 114.223-44.086 82.16-8.016 348.681-10.020 348.681-10.020s216.422 0 358.7 10.020c20.040 2.004 64.126 4.008 104.204 44.086 30.058 32.062 40.078 102.2 40.078 102.2s10.020 82.16 10.020 166.324v78.152c0 82.16-10.020 164.32-10.020 164.32zM651.271 457.009v0l-242.474-126.246v288.564l276.54-144.282z" />
<glyph unicode="&#xe052;" glyph-name="vimeo" d="M663.295 685.455c-24.046 0-50.098-6.012-76.148-18.036 50.098 166.324 146.286 246.481 288.564 240.47 106.208-2.004 156.305-70.136 150.294-204.399-6.012-100.196-74.144-236.462-210.41-410.802-138.27-180.352-256.5-272.532-352.688-272.532-60.118 0-110.216 56.11-152.298 166.324-28.054 102.2-56.11 202.395-82.16 304.594-32.062 110.216-64.126 164.32-100.196 164.32-8.016 0-34.066-16.032-80.156-48.094l-48.094 62.122c50.098 46.090 100.196 90.176 150.294 134.262 66.13 58.114 118.23 88.172 152.298 92.18 78.152 8.016 128.25-46.090 146.286-164.32 20.040-126.246 34.066-204.399 42.082-234.458 22.044-104.204 48.094-156.305 76.148-156.305 22.044 0 54.106 34.066 96.188 100.196 42.082 68.133 66.13 120.234 70.136 156.305 6.012 58.114-18.036 88.172-70.136 88.172z" />
</font>
</defs>
</svg>
